<svg width="17" height="20" viewBox="0 0 17 20" fill="none" xmlns="http://www.w3.org/2000/svg">
<path d="M8.3125 9.875C10.9102 9.875 13.0625 7.75977 13.0625 5.125C13.0625 2.52734 10.9102 0.375 8.3125 0.375C5.67773 0.375 3.5625 2.52734 3.5625 5.125C3.5625 7.75977 5.67773 9.875 8.3125 9.875ZM11.6152 11.0625H10.9844C10.168 11.4707 9.27734 11.6562 8.3125 11.6562C7.34766 11.6562 6.41992 11.4707 5.60352 11.0625H4.97266C2.22656 11.0625 0 13.3262 0 16.0723V17.5938C0 18.5957 0.779297 19.375 1.78125 19.375H14.8438C15.8086 19.375 16.625 18.5957 16.625 17.5938V16.0723C16.625 13.3262 14.3613 11.0625 11.6152 11.0625Z" fill="#F3F3F3"/>
</svg>
