<svg width="35" height="29" viewBox="0 0 35 29" fill="none" xmlns="http://www.w3.org/2000/svg">
<g clip-path="url(#clip0_25_917)">
<path d="M5.6679 4.4445C5.6679 2.97228 6.93727 1.77783 8.50184 1.77783H25.5055C27.0701 1.77783 28.3395 2.97228 28.3395 4.4445V21.3334H5.6679V4.4445ZM24.1476 7.05561C23.5926 6.53339 22.6952 6.53339 22.1461 7.05561L15.5926 13.2223L12.8177 10.6112C12.2627 10.0889 11.3653 10.0889 10.8162 10.6112C10.2672 11.1334 10.2613 11.9778 10.8162 12.4945L14.5948 16.0501C15.1498 16.5723 16.0472 16.5723 16.5963 16.0501L24.1476 8.9445C24.7026 8.42228 24.7026 7.57783 24.1476 7.06117V7.05561ZM0 18.6667C0 17.1945 1.26937 16.0001 2.83395 16.0001H3.7786V23.1112H30.2288V16.0001H31.1734C32.738 16.0001 34.0074 17.1945 34.0074 18.6667V24.0001C34.0074 25.4723 32.738 26.6667 31.1734 26.6667H2.83395C1.26937 26.6667 0 25.4723 0 24.0001V18.6667Z" fill="#00B4D8"/>
</g>
<defs>
<clipPath id="clip0_25_917">
<rect width="34.0074" height="28.4444" fill="white"/>
</clipPath>
</defs>
</svg>
