<svg width="48" height="36" viewBox="0 0 48 36" fill="none" xmlns="http://www.w3.org/2000/svg">
<path d="M47.0625 11.9062C44.9062 13.5938 42.1875 15.6562 32.625 22.5938C30.75 24 27.2812 27.0938 24 27.0938C20.625 27.0938 17.25 24 15.2812 22.5938C5.71875 15.6562 3 13.5938 0.84375 11.9062C0.46875 11.625 0 11.9062 0 12.375V31.5C0 34.0312 1.96875 36 4.5 36H43.5C45.9375 36 48 34.0312 48 31.5V12.375C48 11.9062 47.4375 11.625 47.0625 11.9062ZM24 24C26.1562 24.0938 29.25 21.2812 30.8438 20.1562C43.3125 11.1562 44.25 10.3125 47.0625 8.0625C47.625 7.6875 48 7.03125 48 6.28125V4.5C48 2.0625 45.9375 0 43.5 0H4.5C1.96875 0 0 2.0625 0 4.5V6.28125C0 7.03125 0.28125 7.6875 0.84375 8.0625C3.65625 10.3125 4.59375 11.1562 17.0625 20.1562C18.6562 21.2812 21.75 24.0938 24 24Z" fill="#00B4D8"/>
</svg>
