<svg width="42" height="42" viewBox="0 0 42 42" fill="none" xmlns="http://www.w3.org/2000/svg">
<path d="M39 0H2.90625C1.3125 0 0 1.40625 0 3.09375V39C0 40.6875 1.3125 42 2.90625 42H39C40.5938 42 42 40.6875 42 39V3.09375C42 1.40625 40.5938 0 39 0ZM12.6562 36H6.46875V16.0312H12.6562V36ZM9.5625 13.2188C7.5 13.2188 5.90625 11.625 5.90625 9.65625C5.90625 7.6875 7.5 6 9.5625 6C11.5312 6 13.125 7.6875 13.125 9.65625C13.125 11.625 11.5312 13.2188 9.5625 13.2188ZM36 36H29.7188V26.25C29.7188 24 29.7188 21 26.5312 21C23.25 21 22.7812 23.5312 22.7812 26.1562V36H16.5938V16.0312H22.5V18.75H22.5938C23.4375 17.1562 25.5 15.4688 28.5 15.4688C34.7812 15.4688 36 19.6875 36 25.0312V36Z" fill="#007AB9"/>
</svg>
