<svg width="29" height="33" viewBox="0 0 29 33" fill="none" xmlns="http://www.w3.org/2000/svg">
<path d="M28.0667 5.54883C28.0667 2.98633 21.7542 0.923828 14.0667 0.923828C6.31667 0.923828 0.0666656 2.98633 0.0666656 5.54883V8.36133C0.0666656 10.9238 6.31667 12.9238 14.0667 12.9238C21.7542 12.9238 28.0667 10.9238 28.0667 8.36133V5.54883ZM28.0667 11.9238C25.0042 14.0488 19.5042 14.9863 14.0667 14.9863C8.56667 14.9863 3.06667 14.0488 0.0666656 11.9238V18.3613C0.0666656 20.9238 6.31667 22.9238 14.0667 22.9238C21.7542 22.9238 28.0667 20.9238 28.0667 18.3613V11.9238ZM28.0667 21.9238C25.0042 24.0488 19.5042 24.9863 14.0667 24.9863C8.56667 24.9863 3.06667 24.0488 0.0666656 21.9238V28.3613C0.0666656 30.9238 6.31667 32.9238 14.0667 32.9238C21.7542 32.9238 28.0667 30.9238 28.0667 28.3613V21.9238Z" fill="#666666"/>
</svg>
