<svg width="51" height="50" viewBox="0 0 51 50" fill="none" xmlns="http://www.w3.org/2000/svg">
<path d="M49.109 23.1313C49.6559 23.6782 50.0934 24.4438 50.0934 25.3188C50.0934 26.1938 49.6559 26.9595 49.109 27.5063L27.7809 48.8345C27.234 49.3813 26.4684 49.7095 25.5934 49.7095C24.7184 49.7095 23.9527 49.3813 23.4059 48.8345L1.96835 27.397C1.42148 26.8501 0.983978 26.0845 0.983978 25.2095C0.983978 24.3345 1.42148 23.5688 1.96835 23.022L16.6246 8.25635L22.2027 13.8345C21.5465 15.4751 21.984 17.8813 24.2809 18.7563V32.2095C21.7652 33.1938 21.109 36.4751 22.9684 38.3345C23.6246 39.1001 24.609 39.4282 25.7027 39.4282C26.6871 39.4282 27.6715 39.1001 28.3277 38.3345C29.7496 36.9126 30.0777 33.7407 27.3434 32.3188V18.9751L32.3746 24.1157C30.8434 27.8345 35.6559 31.1157 38.4996 28.1626C41.3434 25.3188 38.3902 20.7251 34.6715 21.9282L29.2027 16.5688C30.1871 13.6157 27.4527 10.772 24.4996 11.7563L18.8121 6.17822L23.2965 1.69385C23.8434 1.14697 24.609 0.709473 25.484 0.709473C26.359 0.709473 27.1246 1.14697 27.7809 1.69385L49.109 23.1313Z" fill="#F05033"/>
</svg>
