<svg width="18" height="18" viewBox="0 0 18 18" fill="none" xmlns="http://www.w3.org/2000/svg">
<path d="M9.3125 4.60742C6.9375 4.60742 5.04492 6.53711 5.04492 8.875C5.04492 11.25 6.9375 13.1426 9.3125 13.1426C11.6504 13.1426 13.5801 11.25 13.5801 8.875C13.5801 6.53711 11.6504 4.60742 9.3125 4.60742ZM9.3125 11.6582C7.79102 11.6582 6.5293 10.4336 6.5293 8.875C6.5293 7.35352 7.75391 6.12891 9.3125 6.12891C10.834 6.12891 12.0586 7.35352 12.0586 8.875C12.0586 10.4336 10.834 11.6582 9.3125 11.6582ZM14.7305 4.45898C14.7305 3.90234 14.2852 3.45703 13.7285 3.45703C13.1719 3.45703 12.7266 3.90234 12.7266 4.45898C12.7266 5.01562 13.1719 5.46094 13.7285 5.46094C14.2852 5.46094 14.7305 5.01562 14.7305 4.45898ZM17.5508 5.46094C17.4766 4.125 17.1797 2.9375 16.2148 1.97266C15.25 1.00781 14.0625 0.710938 12.7266 0.636719C11.3535 0.5625 7.23438 0.5625 5.86133 0.636719C4.52539 0.710938 3.375 1.00781 2.37305 1.97266C1.4082 2.9375 1.11133 4.125 1.03711 5.46094C0.962891 6.83398 0.962891 10.9531 1.03711 12.3262C1.11133 13.6621 1.4082 14.8125 2.37305 15.8145C3.375 16.7793 4.52539 17.0762 5.86133 17.1504C7.23438 17.2246 11.3535 17.2246 12.7266 17.1504C14.0625 17.0762 15.25 16.7793 16.2148 15.8145C17.1797 14.8125 17.4766 13.6621 17.5508 12.3262C17.625 10.9531 17.625 6.83398 17.5508 5.46094ZM15.7695 13.7734C15.5098 14.5156 14.916 15.0723 14.2109 15.3691C13.0977 15.8145 10.5 15.7031 9.3125 15.7031C8.08789 15.7031 5.49023 15.8145 4.41406 15.3691C3.67188 15.0723 3.11523 14.5156 2.81836 13.7734C2.37305 12.6973 2.48438 10.0996 2.48438 8.875C2.48438 7.6875 2.37305 5.08984 2.81836 3.97656C3.11523 3.27148 3.67188 2.71484 4.41406 2.41797C5.49023 1.97266 8.08789 2.08398 9.3125 2.08398C10.5 2.08398 13.0977 1.97266 14.2109 2.41797C14.916 2.67773 15.4727 3.27148 15.7695 3.97656C16.2148 5.08984 16.1035 7.6875 16.1035 8.875C16.1035 10.0996 16.2148 12.6973 15.7695 13.7734Z" fill="#ffffff"/>
</svg>
