<svg width="17" height="18" viewBox="0 0 17 18" fill="none" xmlns="http://www.w3.org/2000/svg">
<path d="M15.4375 0.5625H1.15039C0.519531 0.5625 0 1.11914 0 1.78711V16C0 16.668 0.519531 17.1875 1.15039 17.1875H15.4375C16.0684 17.1875 16.625 16.668 16.625 16V1.78711C16.625 1.11914 16.0684 0.5625 15.4375 0.5625ZM5.00977 14.8125H2.56055V6.9082H5.00977V14.8125ZM3.78516 5.79492C2.96875 5.79492 2.33789 5.16406 2.33789 4.38477C2.33789 3.60547 2.96875 2.9375 3.78516 2.9375C4.56445 2.9375 5.19531 3.60547 5.19531 4.38477C5.19531 5.16406 4.56445 5.79492 3.78516 5.79492ZM14.25 14.8125H11.7637V10.9531C11.7637 10.0625 11.7637 8.875 10.502 8.875C9.20312 8.875 9.01758 9.87695 9.01758 10.916V14.8125H6.56836V6.9082H8.90625V7.98438H8.94336C9.27734 7.35352 10.0938 6.68555 11.2812 6.68555C13.7676 6.68555 14.25 8.35547 14.25 10.4707V14.8125Z" fill="#ffffff"/>
</svg>
