<svg width="19" height="19" viewBox="0 0 19 19" fill="none" xmlns="http://www.w3.org/2000/svg">
<path d="M6.12305 15.1445C6.12305 15.0703 6.04883 14.9961 5.9375 14.9961C5.82617 14.9961 5.75195 15.0703 5.75195 15.1445C5.75195 15.2188 5.82617 15.293 5.9375 15.2559C6.04883 15.2559 6.12305 15.2188 6.12305 15.1445ZM4.97266 14.959C4.97266 15.0332 5.04688 15.1445 5.1582 15.1445C5.23242 15.1816 5.34375 15.1445 5.38086 15.0703C5.38086 14.9961 5.34375 14.9219 5.23242 14.8848C5.12109 14.8477 5.00977 14.8848 4.97266 14.959ZM6.64258 14.9219C6.53125 14.9219 6.45703 14.9961 6.45703 15.1074C6.45703 15.1816 6.56836 15.2188 6.67969 15.1816C6.79102 15.1445 6.86523 15.1074 6.82812 15.0332C6.82812 14.959 6.7168 14.8848 6.64258 14.9219ZM9.05469 0.671875C3.93359 0.671875 0 4.60547 0 9.72656C0 13.8457 2.56055 17.3711 6.27148 18.6328C6.75391 18.707 6.90234 18.4102 6.90234 18.1875C6.90234 17.9277 6.90234 16.666 6.90234 15.8867C6.90234 15.8867 4.30469 16.4434 3.74805 14.7734C3.74805 14.7734 3.33984 13.6973 2.74609 13.4375C2.74609 13.4375 1.89258 12.8438 2.7832 12.8438C2.7832 12.8438 3.71094 12.918 4.23047 13.8086C5.04688 15.2559 6.38281 14.8477 6.93945 14.5879C7.01367 13.9941 7.23633 13.5859 7.5332 13.3262C5.45508 13.1035 3.33984 12.8066 3.33984 9.24414C3.33984 8.20508 3.63672 7.72266 4.23047 7.05469C4.11914 6.79492 3.82227 5.83008 4.3418 4.53125C5.08398 4.30859 6.90234 5.5332 6.90234 5.5332C7.64453 5.31055 8.42383 5.23633 9.20312 5.23633C10.0195 5.23633 10.7988 5.31055 11.541 5.5332C11.541 5.5332 13.3223 4.27148 14.1016 4.53125C14.6211 5.83008 14.2871 6.79492 14.2129 7.05469C14.8066 7.72266 15.1777 8.20508 15.1777 9.24414C15.1777 12.8066 12.9883 13.1035 10.9102 13.3262C11.2441 13.623 11.541 14.1797 11.541 15.0703C11.541 16.2949 11.5039 17.8535 11.5039 18.1504C11.5039 18.4102 11.6895 18.707 12.1719 18.5957C15.8828 17.3711 18.4062 13.8457 18.4062 9.72656C18.4062 4.60547 14.2129 0.671875 9.05469 0.671875ZM3.59961 13.4746C3.52539 13.5117 3.5625 13.623 3.59961 13.6973C3.67383 13.7344 3.74805 13.7715 3.82227 13.7344C3.85938 13.6973 3.85938 13.5859 3.78516 13.5117C3.71094 13.4746 3.63672 13.4375 3.59961 13.4746ZM3.19141 13.1777C3.1543 13.252 3.19141 13.2891 3.26562 13.3262C3.33984 13.3633 3.41406 13.3633 3.45117 13.2891C3.45117 13.252 3.41406 13.2148 3.33984 13.1777C3.26562 13.1406 3.22852 13.1406 3.19141 13.1777ZM4.37891 14.5137C4.3418 14.5508 4.3418 14.6621 4.45312 14.7363C4.52734 14.8105 4.63867 14.8477 4.67578 14.7734C4.71289 14.7363 4.71289 14.625 4.63867 14.5508C4.56445 14.4766 4.45312 14.4395 4.37891 14.5137ZM3.9707 13.957C3.89648 13.9941 3.89648 14.1055 3.9707 14.1797C4.04492 14.2539 4.11914 14.291 4.19336 14.2539C4.23047 14.2168 4.23047 14.1055 4.19336 14.0312C4.11914 13.957 4.04492 13.9199 3.9707 13.957Z" fill="#ffffff"/>
</svg>
