<svg width="19" height="20" viewBox="0 0 19 20" fill="none" xmlns="http://www.w3.org/2000/svg">
<path d="M9.5 0.671875C4.37891 0.671875 0.296875 4.79102 0.296875 9.875C0.296875 14.9961 4.37891 19.0781 9.5 19.0781C11.2812 19.0781 13.0254 18.5586 14.5098 17.5938C14.9551 17.2969 15.0664 16.7031 14.6953 16.2949L14.3242 15.8125C14.0645 15.4785 13.5449 15.4043 13.1738 15.627C12.0605 16.332 10.7988 16.7031 9.5 16.7031C5.71484 16.7031 2.67188 13.6602 2.67188 9.875C2.67188 6.12695 5.71484 3.04688 9.5 3.04688C13.2109 3.04688 16.3281 5.19922 16.3281 8.98438C16.3281 10.4316 15.5117 11.9531 14.1387 12.1016C13.5078 12.1016 13.5078 11.6191 13.6562 10.9883L14.5098 6.49805C14.6211 5.94141 14.2129 5.42188 13.6562 5.42188H11.9863C11.7266 5.42188 11.5039 5.64453 11.4668 5.86719V5.9043C10.9473 5.23633 9.98242 5.08789 9.24023 5.08789C6.49414 5.08789 4.15625 7.38867 4.15625 10.6914C4.15625 13.1406 5.49219 14.625 7.71875 14.625C8.68359 14.625 9.83398 14.0684 10.4648 13.2148C10.8359 14.4766 11.9863 14.4766 13.0996 14.4766C17.1445 14.4766 18.7031 11.8047 18.7031 8.98438C18.7031 3.9375 14.6211 0.671875 9.5 0.671875ZM8.68359 11.9902C7.86719 11.9902 7.34766 11.3965 7.34766 10.4688C7.34766 8.79883 8.49805 7.75977 9.5 7.75977C10.3535 7.75977 10.8359 8.35352 10.8359 9.28125C10.8359 10.9512 9.57422 11.9902 8.68359 11.9902Z" fill="#F3F3F3"/>
</svg>
