<svg width="24" height="20" viewBox="0 0 24 20" fill="none" xmlns="http://www.w3.org/2000/svg">
<path d="M9.46289 10.0977C9.68555 10.3203 10.0566 10.3203 10.2793 10.0977L10.6875 9.68945C10.9473 9.4668 10.9473 9.05859 10.6875 8.83594L9.38867 7.5L10.6875 6.20117C10.9473 5.97852 10.9473 5.57031 10.6875 5.34766L10.2793 4.93945C10.0566 4.7168 9.68555 4.7168 9.46289 4.93945L7.27344 7.0918C7.05078 7.31445 7.05078 7.72266 7.27344 7.94531L9.46289 10.0977ZM13.0254 9.68945L13.4336 10.0977C13.6562 10.3203 14.0273 10.3203 14.25 10.0977L16.4395 7.94531C16.6621 7.72266 16.6621 7.31445 16.4395 7.0918L14.25 4.93945C14.0273 4.7168 13.6562 4.7168 13.4336 4.93945L13.0254 5.34766C12.7656 5.57031 12.7656 5.97852 13.0254 6.20117L14.3242 7.5L13.0254 8.83594C12.7656 9.05859 12.7656 9.4668 13.0254 9.68945ZM23.1562 15.8125H14.1387C14.1016 16.5547 13.582 17 12.9141 17H10.6875C9.98242 17 9.42578 16.3691 9.46289 15.8125H0.59375C0.259766 15.8125 0 16.1094 0 16.4062V17C0 18.3359 1.03906 19.375 2.375 19.375H21.375C22.6738 19.375 23.75 18.3359 23.75 17V16.4062C23.75 16.1094 23.4531 15.8125 23.1562 15.8125ZM21.375 2.15625C21.375 1.19141 20.5586 0.375 19.5938 0.375H4.15625C3.1543 0.375 2.375 1.19141 2.375 2.15625V14.625H21.375V2.15625ZM19 12.25H4.75V2.75H19V12.25Z" fill="#F3F3F3"/>
</svg>
