<svg width="214" height="170" viewBox="0 0 214 170" fill="none" xmlns="http://www.w3.org/2000/svg">
<path d="M158.261 102.655L157.606 107.86L167.069 135.316L200.197 134.938L200.958 130.393L158.261 102.655Z" fill="white"/>
<path d="M167.069 135.598C167.011 135.598 166.954 135.58 166.907 135.547C166.859 135.513 166.823 135.466 166.804 135.412L157.341 107.95C157.33 107.91 157.33 107.867 157.341 107.826L157.996 102.622C158 102.573 158.016 102.527 158.044 102.487C158.072 102.447 158.11 102.415 158.154 102.394C158.198 102.374 158.247 102.365 158.295 102.369C158.344 102.374 158.39 102.391 158.43 102.419L201.122 130.156C201.168 130.186 201.205 130.228 201.227 130.278C201.249 130.329 201.256 130.384 201.246 130.438L200.49 134.983C200.48 135.049 200.446 135.109 200.395 135.152C200.345 135.195 200.281 135.219 200.214 135.22L167.085 135.598H167.069ZM157.894 107.832L167.272 135.034L199.977 134.656L200.665 130.528L158.503 103.135L157.894 107.832Z" fill="#231F20"/>
<path d="M167.841 130.585L158.255 102.655L187.154 102.52L200.947 130.393L167.841 130.585Z" fill="white"/>
<path d="M167.841 130.867C167.783 130.865 167.726 130.846 167.679 130.812C167.631 130.778 167.596 130.73 167.576 130.675L157.99 102.746C157.976 102.703 157.972 102.658 157.978 102.614C157.985 102.57 158.002 102.528 158.027 102.492C158.053 102.455 158.087 102.426 158.127 102.405C158.166 102.385 158.21 102.374 158.255 102.373L187.16 102.238C187.212 102.237 187.264 102.251 187.308 102.278C187.353 102.305 187.39 102.344 187.414 102.39L201.206 130.269C201.229 130.311 201.24 130.357 201.24 130.404C201.24 130.452 201.229 130.498 201.206 130.54C201.182 130.581 201.147 130.615 201.106 130.639C201.064 130.662 201.017 130.675 200.97 130.675L167.858 130.867H167.841ZM158.655 102.937L168.044 130.297L200.502 130.111L186.968 102.802L158.655 102.937Z" fill="#231F20"/>
<path d="M186.675 113.273H168.106C168.053 113.274 168.001 113.259 167.957 113.231C167.912 113.203 167.876 113.163 167.852 113.116L164.926 107.076C164.902 107.035 164.89 106.988 164.89 106.941C164.89 106.893 164.902 106.847 164.926 106.806C164.952 106.765 164.988 106.733 165.031 106.71C165.073 106.687 165.12 106.676 165.168 106.676H184.042C184.097 106.675 184.151 106.691 184.197 106.721C184.243 106.751 184.28 106.794 184.301 106.845L186.923 112.879C186.945 112.919 186.957 112.965 186.957 113.011C186.957 113.058 186.945 113.103 186.923 113.144C186.897 113.185 186.86 113.219 186.816 113.242C186.773 113.264 186.724 113.275 186.675 113.273ZM168.281 112.71H186.246L183.867 107.24H165.625L168.281 112.71Z" fill="#D1D3D4"/>
<path d="M167.069 135.598H167.023C166.95 135.584 166.885 135.542 166.842 135.481C166.798 135.42 166.781 135.345 166.792 135.271L167.565 130.54C167.571 130.503 167.584 130.467 167.603 130.435C167.623 130.403 167.649 130.376 167.679 130.354C167.71 130.332 167.744 130.316 167.781 130.307C167.817 130.298 167.855 130.297 167.892 130.303C167.929 130.309 167.964 130.322 167.996 130.342C168.028 130.361 168.056 130.387 168.078 130.417C168.1 130.448 168.116 130.482 168.124 130.519C168.133 130.555 168.135 130.593 168.129 130.63L167.356 135.361C167.345 135.429 167.31 135.49 167.257 135.534C167.204 135.577 167.137 135.6 167.069 135.598Z" fill="#231F20"/>
<path d="M168.952 110.527L169.826 110.398C170.153 110.883 170.441 111.086 170.869 111.086C171.298 111.086 171.32 110.809 171.055 110.324L169.798 108.007H170.773L172.093 110.437C172.6 111.379 172.245 111.943 171.332 111.943C170.846 111.936 170.37 111.802 169.952 111.554C169.534 111.305 169.189 110.951 168.952 110.527Z" fill="#D1D3D4"/>
<path d="M175.645 111.272H173.807L173.88 111.835H172.865L172.499 108.001H173.401L177.196 111.835H176.192L175.645 111.272ZM174.856 110.443L173.519 109.044L173.7 110.443H174.856Z" fill="#D1D3D4"/>
<path d="M174.439 108.007H175.51L178.115 110.68L177.822 108.007H178.888L179.226 111.841H178.25L174.439 108.007Z" fill="#D1D3D4"/>
<path d="M183.106 111.272H181.245L181.318 111.835H180.286L179.92 108.001H180.85L184.645 111.835H183.636L183.106 111.272ZM182.316 110.443L180.985 109.044L181.166 110.443H182.316Z" fill="#D1D3D4"/>
<path d="M24.8389 94.6425C24.7722 94.6459 24.7064 94.6259 24.6528 94.5861C24.6242 94.5627 24.6006 94.5338 24.5834 94.5012C24.5662 94.4685 24.5557 94.4327 24.5525 94.3959C24.5493 94.3591 24.5536 94.322 24.565 94.2869C24.5764 94.2518 24.5948 94.2193 24.6189 94.1914C25.0352 93.6463 25.3242 93.015 25.4647 92.3436C25.6052 91.6723 25.5937 90.9781 25.4309 90.3118C25.229 89.6153 24.9411 88.9467 24.5738 88.3213C24.3334 87.8833 24.1151 87.4335 23.9197 86.9736C23.4866 85.8591 23.3123 84.6607 23.41 83.469C23.5076 82.2773 23.8748 81.1233 24.4836 80.0942C24.5258 80.0356 24.5889 79.9954 24.6598 79.982C24.7307 79.9685 24.8041 79.9828 24.8648 80.0218C24.9256 80.0608 24.969 80.1217 24.9862 80.1918C25.0034 80.2619 24.9931 80.336 24.9573 80.3987C24.4004 81.3534 24.0638 82.4204 23.9721 83.5219C23.8804 84.6233 24.0359 85.7313 24.4272 86.765C24.6138 87.2067 24.8247 87.6378 25.0588 88.0563C25.4475 88.7222 25.7507 89.4346 25.961 90.1765C26.1434 90.9286 26.155 91.7121 25.995 92.4693C25.8349 93.2265 25.5073 93.9383 25.0362 94.5523C25.0109 94.5796 24.9804 94.6017 24.9466 94.6171C24.9127 94.6326 24.8761 94.6412 24.8389 94.6425Z" fill="#D1D3D4"/>
<path d="M18.3372 95.7139C18.2941 95.7154 18.2514 95.7057 18.2132 95.6857C18.1798 95.6695 18.15 95.6468 18.1254 95.619C18.1008 95.5912 18.0819 95.5588 18.0699 95.5237C18.0578 95.4886 18.0528 95.4515 18.0552 95.4145C18.0575 95.3774 18.0671 95.3412 18.0835 95.3079C19.0872 93.2835 20.0514 90.4415 18.9349 88.3833C18.6729 87.9324 18.3607 87.5125 18.0045 87.1315C17.3433 86.4948 16.881 85.68 16.6738 84.7857C16.4538 83.4324 17.1531 82.1806 17.8015 81.1148C17.8412 81.0512 17.9044 81.006 17.9774 80.9891C18.0504 80.9722 18.1271 80.9849 18.1906 81.0246C18.2542 81.0642 18.2994 81.1275 18.3163 81.2004C18.3332 81.2734 18.3205 81.3501 18.2808 81.4137C17.6606 82.3948 17.0177 83.5339 17.2038 84.6955C17.4136 85.4899 17.846 86.2079 18.45 86.765C18.8301 87.1771 19.1648 87.6289 19.4481 88.1127C20.6774 90.3682 19.668 93.4132 18.6079 95.556C18.5841 95.6066 18.5454 95.6488 18.4971 95.677C18.4488 95.7052 18.393 95.7181 18.3372 95.7139Z" fill="#D1D3D4"/>
<path d="M30.6977 95.15C30.638 95.1512 30.5795 95.1335 30.5306 95.0993C30.4816 95.0652 30.4448 95.0164 30.4254 94.96C30.4059 94.9035 30.4049 94.8424 30.4224 94.7854C30.4399 94.7283 30.4751 94.6783 30.5229 94.6425C31.2954 94.0786 31.301 92.511 30.9232 91.3494C30.7992 90.9716 30.6413 90.5994 30.4947 90.2216C30.0981 89.3852 29.8483 88.4868 29.756 87.5657C29.7143 86.957 29.8143 86.3469 30.0481 85.7833C30.282 85.2198 30.6433 84.7181 31.1037 84.3177C31.1621 84.2716 31.2364 84.2505 31.3103 84.2589C31.3843 84.2674 31.4519 84.3047 31.4984 84.3628C31.5445 84.4213 31.5656 84.4955 31.5572 84.5695C31.5487 84.6434 31.5114 84.711 31.4533 84.7576C31.0672 85.1054 30.7651 85.5363 30.5698 86.0179C30.3744 86.4994 30.2909 87.019 30.3255 87.5375C30.4132 88.3952 30.6498 89.231 31.0247 90.0074C31.177 90.3795 31.3349 90.7686 31.4646 91.1633C31.9044 92.4997 31.9044 94.2986 30.9007 95.0824C30.873 95.1066 30.8408 95.125 30.806 95.1366C30.7711 95.1483 30.7343 95.1528 30.6977 95.15Z" fill="#D1D3D4"/>
<path d="M39.4267 137.227H162.642V140.002C162.642 140.693 162.368 141.355 161.879 141.844C161.39 142.332 160.728 142.607 160.037 142.607H42.0318C41.3409 142.607 40.6783 142.332 40.1897 141.844C39.7011 141.355 39.4267 140.693 39.4267 140.002V137.227Z" fill="black"/>
<path d="M160.55 139.539H41.5694C41.2352 139.539 40.9059 139.459 40.6086 139.307C40.3114 139.154 40.0549 138.932 39.8603 138.661C39.6657 138.389 39.5387 138.075 39.4898 137.744C39.4408 137.413 39.4714 137.076 39.5789 136.759L50.2928 105.182C50.7572 103.823 51.6325 102.643 52.7974 101.805C53.9623 100.966 55.3591 100.511 56.7944 100.501H145.325C146.771 100.501 148.181 100.954 149.356 101.797C150.531 102.639 151.413 103.829 151.877 105.199L162.591 136.776C162.697 137.096 162.724 137.436 162.671 137.768C162.618 138.101 162.486 138.416 162.286 138.686C162.086 138.957 161.824 139.176 161.522 139.324C161.22 139.473 160.887 139.546 160.55 139.539Z" fill="white"/>
<path d="M160.55 139.799H41.5694C41.1922 139.802 40.8198 139.714 40.4832 139.544C40.1467 139.374 39.8558 139.125 39.635 138.819C39.4142 138.513 39.2698 138.159 39.2139 137.786C39.1581 137.413 39.1923 137.032 39.3139 136.675L50.0278 105.097C50.5073 103.681 51.4172 102.45 52.6304 101.577C53.8437 100.703 55.2995 100.231 56.7944 100.225H145.325C146.822 100.233 148.28 100.709 149.493 101.587C150.707 102.465 151.615 103.7 152.092 105.12L162.806 136.697C162.927 137.054 162.961 137.435 162.906 137.809C162.85 138.182 162.705 138.536 162.484 138.842C162.264 139.148 161.973 139.396 161.636 139.567C161.3 139.737 160.927 139.824 160.55 139.821V139.799ZM56.7944 100.789C55.4033 100.788 54.0466 101.222 52.9149 102.031C51.7832 102.84 50.9333 103.983 50.4845 105.3L39.7706 136.878C39.6766 137.156 39.6502 137.453 39.6937 137.744C39.7371 138.034 39.8492 138.31 40.0206 138.549C40.192 138.787 40.4178 138.982 40.6793 139.116C40.9408 139.25 41.2305 139.32 41.5243 139.319H160.55C160.843 139.318 161.132 139.248 161.393 139.113C161.654 138.979 161.879 138.785 162.05 138.546C162.222 138.308 162.334 138.033 162.378 137.743C162.422 137.453 162.396 137.156 162.304 136.878L151.59 105.3C151.14 103.984 150.29 102.841 149.159 102.032C148.027 101.223 146.671 100.788 145.28 100.789H56.7944Z" fill="#231F20"/>
<path d="M150.135 121.027H51.9281C51.8844 121.026 51.8414 121.016 51.8023 120.996C51.7632 120.977 51.7291 120.949 51.7025 120.914C51.6774 120.878 51.6603 120.838 51.6525 120.795C51.6447 120.752 51.6464 120.708 51.6574 120.666L56.3715 104.798C56.3894 104.74 56.4252 104.689 56.4738 104.653C56.5225 104.616 56.5814 104.596 56.6422 104.595H145.421C145.482 104.595 145.541 104.615 145.59 104.652C145.639 104.688 145.674 104.74 145.692 104.798L150.4 120.666C150.414 120.708 150.417 120.752 150.409 120.796C150.401 120.839 150.382 120.88 150.355 120.914C150.33 120.949 150.297 120.977 150.259 120.997C150.22 121.017 150.178 121.027 150.135 121.027ZM52.3059 120.463H149.757L145.212 105.159H56.8565L52.3059 120.463Z" fill="#D1D3D4"/>
<path d="M119.386 135.288H82.6882C82.6459 135.287 82.6043 135.277 82.5663 135.259C82.5283 135.24 82.4948 135.213 82.4683 135.18C82.4428 135.147 82.4246 135.109 82.4149 135.068C82.4052 135.027 82.4042 134.985 82.4119 134.944L84.8423 123.908C84.8553 123.845 84.8899 123.787 84.9402 123.746C84.9906 123.705 85.0536 123.683 85.1186 123.683H116.95C117.015 123.683 117.078 123.705 117.128 123.746C117.179 123.787 117.213 123.845 117.226 123.908L119.651 134.938C119.659 134.979 119.658 135.022 119.649 135.063C119.639 135.104 119.62 135.142 119.593 135.175C119.567 135.207 119.534 135.234 119.496 135.253C119.458 135.271 119.417 135.281 119.375 135.282L119.386 135.288ZM83.0491 134.724H119.036L116.736 124.252H85.3441L83.0491 134.724Z" fill="#D1D3D4"/>
<path d="M146.594 27.3988H55.3904C53.3723 27.3988 51.7364 29.0347 51.7364 31.0528V96.8473C51.7364 98.8654 53.3723 100.501 55.3904 100.501H146.594C148.612 100.501 150.248 98.8654 150.248 96.8473V31.0528C150.248 29.0347 148.612 27.3988 146.594 27.3988Z" fill="white"/>
<path d="M146.588 100.789H55.3904C54.3552 100.78 53.3649 100.365 52.6329 99.6329C51.9009 98.9009 51.4858 97.9107 51.477 96.8755V31.0528C51.4858 30.0176 51.9009 29.0273 52.6329 28.2953C53.3649 27.5633 54.3552 27.1482 55.3904 27.1394H146.588C147.626 27.1394 148.621 27.5517 149.355 28.2856C150.089 29.0195 150.501 30.0149 150.501 31.0528V96.8417C150.502 97.8827 150.09 98.8816 149.357 99.6209C148.624 100.36 147.629 100.78 146.588 100.789ZM55.3904 27.6525C54.493 27.6525 53.6325 28.009 52.998 28.6435C52.3635 29.278 52.007 30.1385 52.007 31.0358V96.8417C52.007 97.739 52.3635 98.5996 52.998 99.2341C53.6325 99.8686 54.493 100.225 55.3904 100.225H146.588C147.485 100.225 148.346 99.8686 148.98 99.2341C149.615 98.5996 149.971 97.739 149.971 96.8417V31.0528C149.971 30.1554 149.615 29.2949 148.98 28.6604C148.346 28.0259 147.485 27.6694 146.588 27.6694L55.3904 27.6525Z" fill="#231F20"/>
<path d="M146.504 31.3516H55.2663V96.447H146.504V31.3516Z" fill="black"/>
<path d="M84.1318 31.3516H55.2663V96.447H84.1318V31.3516Z" fill="#D1D3D4"/>
<path d="M98.0204 52.2437H93.0581C92.9838 52.2423 92.9129 52.2121 92.8604 52.1595C92.8078 52.107 92.7776 52.0361 92.7762 51.9618C92.7762 51.887 92.8059 51.8153 92.8588 51.7624C92.9117 51.7095 92.9834 51.6798 93.0581 51.6798H98.0204C98.0951 51.6798 98.1668 51.7095 98.2197 51.7624C98.2726 51.8153 98.3023 51.887 98.3023 51.9618C98.3023 52.0365 98.2726 52.1082 98.2197 52.1611C98.1668 52.214 98.0951 52.2437 98.0204 52.2437Z" fill="white"/>
<path d="M110.527 52.2437H100.631C100.557 52.2423 100.486 52.2121 100.433 52.1595C100.381 52.107 100.351 52.0361 100.349 51.9618C100.349 51.887 100.379 51.8153 100.432 51.7624C100.485 51.7095 100.556 51.6798 100.631 51.6798H110.527C110.602 51.6798 110.674 51.7095 110.727 51.7624C110.78 51.8153 110.809 51.887 110.809 51.9618C110.809 51.9988 110.802 52.0354 110.788 52.0696C110.774 52.1039 110.753 52.1349 110.727 52.1611C110.701 52.1873 110.67 52.2081 110.635 52.2222C110.601 52.2364 110.564 52.2437 110.527 52.2437Z" fill="#68E1FD"/>
<path d="M113.51 55.7173H103.597C103.522 55.7173 103.451 55.6876 103.398 55.6347C103.345 55.5818 103.315 55.5101 103.315 55.4353C103.315 55.3605 103.345 55.2888 103.398 55.2359C103.451 55.1831 103.522 55.1534 103.597 55.1534H113.493C113.568 55.1534 113.64 55.1831 113.693 55.2359C113.746 55.2888 113.775 55.3605 113.775 55.4353C113.775 55.5101 113.746 55.5818 113.693 55.6347C113.64 55.6876 113.568 55.7173 113.493 55.7173H113.51Z" fill="#68E1FD"/>
<path d="M99.1876 55.7173H94.2254C94.1506 55.7173 94.0789 55.6876 94.026 55.6347C93.9731 55.5818 93.9434 55.5101 93.9434 55.4353C93.9434 55.3605 93.9731 55.2888 94.026 55.2359C94.0789 55.1831 94.1506 55.1534 94.2254 55.1534H99.1876C99.2624 55.1534 99.3341 55.1831 99.387 55.2359C99.4398 55.2888 99.4695 55.3605 99.4695 55.4353C99.4695 55.5101 99.4398 55.5818 99.387 55.6347C99.3341 55.6876 99.2624 55.7173 99.1876 55.7173Z" fill="white"/>
<path d="M99.3737 59.1908H95.387C95.3122 59.1908 95.2405 59.1611 95.1876 59.1082C95.1348 59.0554 95.1051 58.9836 95.1051 58.9089C95.1051 58.8341 95.1348 58.7624 95.1876 58.7095C95.2405 58.6566 95.3122 58.6269 95.387 58.6269H99.3737C99.4485 58.6269 99.5202 58.6566 99.5731 58.7095C99.6259 58.7624 99.6556 58.8341 99.6556 58.9089C99.6556 58.9836 99.6259 59.0554 99.5731 59.1082C99.5202 59.1611 99.4485 59.1908 99.3737 59.1908Z" fill="white"/>
<path d="M115.281 59.1908H102.875C102.801 59.1908 102.729 59.1611 102.676 59.1082C102.623 59.0554 102.593 58.9836 102.593 58.9089C102.593 58.8341 102.623 58.7624 102.676 58.7095C102.729 58.6566 102.801 58.6269 102.875 58.6269H115.281C115.356 58.6269 115.427 58.6566 115.48 58.7095C115.533 58.7624 115.563 58.8341 115.563 58.9089C115.563 58.9836 115.533 59.0554 115.48 59.1082C115.427 59.1611 115.356 59.1908 115.281 59.1908Z" fill="#68E1FD"/>
<path d="M101.516 62.6644H96.5542C96.4795 62.6644 96.4078 62.6347 96.3549 62.5818C96.302 62.5289 96.2723 62.4572 96.2723 62.3824C96.2723 62.3076 96.302 62.2359 96.3549 62.1831C96.4078 62.1302 96.4795 62.1005 96.5542 62.1005H101.516C101.591 62.1019 101.662 62.1321 101.714 62.1847C101.767 62.2372 101.797 62.3081 101.798 62.3824C101.798 62.4572 101.769 62.5289 101.716 62.5818C101.663 62.6347 101.591 62.6644 101.516 62.6644Z" fill="white"/>
<path d="M117.841 62.6644H103.112C103.038 62.6644 102.966 62.6347 102.913 62.5818C102.86 62.5289 102.83 62.4572 102.83 62.3824C102.83 62.3076 102.86 62.2359 102.913 62.1831C102.966 62.1302 103.038 62.1005 103.112 62.1005H117.841C117.916 62.1005 117.988 62.1302 118.04 62.1831C118.093 62.2359 118.123 62.3076 118.123 62.3824C118.123 62.4572 118.093 62.5289 118.04 62.5818C117.988 62.6347 117.916 62.6644 117.841 62.6644Z" fill="#68E1FD"/>
<path d="M100.214 66.1379H95.2573C95.1825 66.1379 95.1108 66.1082 95.0579 66.0553C95.0051 66.0025 94.9754 65.9308 94.9754 65.856C94.9754 65.7812 95.0051 65.7095 95.0579 65.6566C95.1108 65.6037 95.1825 65.574 95.2573 65.574H100.214C100.289 65.574 100.36 65.6037 100.413 65.6566C100.466 65.7095 100.496 65.7812 100.496 65.856C100.496 65.9308 100.466 66.0025 100.413 66.0553C100.36 66.1082 100.289 66.1379 100.214 66.1379Z" fill="white"/>
<path d="M110.088 66.1379H102.097C102.022 66.1379 101.951 66.1082 101.898 66.0553C101.845 66.0025 101.815 65.9308 101.815 65.856C101.817 65.7817 101.847 65.7108 101.9 65.6582C101.952 65.6056 102.023 65.5755 102.097 65.574H110.088C110.162 65.5755 110.233 65.6056 110.285 65.6582C110.338 65.7108 110.368 65.7817 110.37 65.856C110.37 65.9308 110.34 66.0025 110.287 66.0553C110.234 66.1082 110.162 66.1379 110.088 66.1379Z" fill="#68E1FD"/>
<path d="M121.123 66.1379H113.138C113.063 66.1379 112.992 66.1082 112.939 66.0553C112.886 66.0025 112.856 65.9308 112.856 65.856C112.856 65.7812 112.886 65.7095 112.939 65.6566C112.992 65.6037 113.063 65.574 113.138 65.574H121.123C121.198 65.574 121.269 65.6037 121.322 65.6566C121.375 65.7095 121.405 65.7812 121.405 65.856C121.405 65.9308 121.375 66.0025 121.322 66.0553C121.269 66.1082 121.198 66.1379 121.123 66.1379Z" fill="#68E1FD"/>
<path d="M96.949 69.6115H95.2573C95.1825 69.6115 95.1108 69.5818 95.0579 69.5289C95.0051 69.476 94.9754 69.4043 94.9754 69.3295C94.9754 69.2548 95.0051 69.183 95.0579 69.1302C95.1108 69.0773 95.1825 69.0476 95.2573 69.0476H96.949C97.0233 69.049 97.0942 69.0792 97.1467 69.1318C97.1993 69.1843 97.2295 69.2552 97.2309 69.3295C97.2309 69.4043 97.2012 69.476 97.1483 69.5289C97.0955 69.5818 97.0238 69.6115 96.949 69.6115Z" fill="white"/>
<path d="M110.088 69.6115H99.8586C99.7839 69.6115 99.7122 69.5818 99.6593 69.5289C99.6064 69.476 99.5767 69.4043 99.5767 69.3295C99.5781 69.2552 99.6083 69.1843 99.6609 69.1318C99.7134 69.0792 99.7843 69.049 99.8586 69.0476H110.088C110.162 69.049 110.233 69.0792 110.285 69.1318C110.338 69.1843 110.368 69.2552 110.37 69.3295C110.37 69.4043 110.34 69.476 110.287 69.5289C110.234 69.5818 110.162 69.6115 110.088 69.6115Z" fill="#68E1FD"/>
<path d="M114.114 69.6115H111.26C111.186 69.6115 111.114 69.5818 111.061 69.5289C111.008 69.476 110.979 69.4043 110.979 69.3295C110.98 69.2552 111.01 69.1843 111.063 69.1318C111.115 69.0792 111.186 69.049 111.26 69.0476H114.114C114.189 69.0476 114.26 69.0773 114.313 69.1302C114.366 69.183 114.396 69.2548 114.396 69.3295C114.396 69.4043 114.366 69.476 114.313 69.5289C114.26 69.5818 114.189 69.6115 114.114 69.6115Z" fill="#68E1FD"/>
<path d="M97.9245 73.0907H95.2404C95.1656 73.0907 95.0939 73.061 95.041 73.0081C94.9882 72.9552 94.9584 72.8835 94.9584 72.8087C94.9584 72.734 94.9882 72.6622 95.041 72.6094C95.0939 72.5565 95.1656 72.5268 95.2404 72.5268H97.9245C97.9993 72.5268 98.071 72.5565 98.1239 72.6094C98.1767 72.6622 98.2064 72.734 98.2064 72.8087C98.205 72.8831 98.1748 72.9539 98.1223 73.0065C98.0697 73.0591 97.9988 73.0892 97.9245 73.0907Z" fill="white"/>
<path d="M112.619 73.0907H100.451C100.376 73.0907 100.304 73.061 100.251 73.0081C100.198 72.9552 100.169 72.8835 100.169 72.8087C100.169 72.734 100.198 72.6622 100.251 72.6094C100.304 72.5565 100.376 72.5268 100.451 72.5268H112.619C112.694 72.5268 112.766 72.5565 112.819 72.6094C112.872 72.6622 112.901 72.734 112.901 72.8087C112.9 72.8831 112.87 72.9539 112.817 73.0065C112.765 73.0591 112.694 73.0892 112.619 73.0907Z" fill="#68E1FD"/>
<path d="M118.749 73.0907H113.787C113.712 73.0892 113.642 73.0591 113.589 73.0065C113.536 72.9539 113.506 72.8831 113.505 72.8087C113.505 72.734 113.534 72.6622 113.587 72.6094C113.64 72.5565 113.712 72.5268 113.787 72.5268H118.749C118.824 72.5268 118.895 72.5565 118.948 72.6094C119.001 72.6622 119.031 72.734 119.031 72.8087C119.031 72.8835 119.001 72.9552 118.948 73.0081C118.895 73.061 118.824 73.0907 118.749 73.0907Z" fill="#68E1FD"/>
<path d="M96.7065 76.5417H94.0731C93.9984 76.5417 93.9266 76.512 93.8738 76.4591C93.8209 76.4062 93.7912 76.3345 93.7912 76.2597C93.7912 76.185 93.8209 76.1132 93.8738 76.0604C93.9266 76.0075 93.9984 75.9778 94.0731 75.9778H96.7065C96.7813 75.9778 96.853 76.0075 96.9059 76.0604C96.9587 76.1132 96.9884 76.185 96.9884 76.2597C96.987 76.3341 96.9568 76.4049 96.9043 76.4575C96.8517 76.5101 96.7808 76.5402 96.7065 76.5417Z" fill="white"/>
<path d="M111.26 76.5417H99.7684C99.6941 76.5402 99.6232 76.5101 99.5707 76.4575C99.5181 76.4049 99.4879 76.3341 99.4865 76.2597C99.4865 76.185 99.5162 76.1132 99.5691 76.0604C99.6219 76.0075 99.6936 75.9778 99.7684 75.9778H111.26C111.335 75.9778 111.407 76.0075 111.46 76.0604C111.513 76.1132 111.542 76.185 111.542 76.2597C111.542 76.3345 111.513 76.4062 111.46 76.4591C111.407 76.512 111.335 76.5417 111.26 76.5417Z" fill="#68E1FD"/>
<path d="M99.0354 80.0378H94.0731C93.9984 80.0378 93.9266 80.0081 93.8738 79.9552C93.8209 79.9023 93.7912 79.8306 93.7912 79.7559C93.7912 79.6811 93.8209 79.6094 93.8738 79.5565C93.9266 79.5036 93.9984 79.4739 94.0731 79.4739H99.0354C99.1101 79.4739 99.1819 79.5036 99.2347 79.5565C99.2876 79.6094 99.3173 79.6811 99.3173 79.7559C99.3159 79.8302 99.2857 79.9011 99.2331 79.9536C99.1806 80.0062 99.1097 80.0364 99.0354 80.0378Z" fill="white"/>
<path d="M104.725 83.5113H94.8062C94.7319 83.5099 94.661 83.4797 94.6084 83.4272C94.5559 83.3746 94.5257 83.3037 94.5243 83.2294C94.5243 83.1546 94.554 83.0829 94.6068 83.03C94.6597 82.9771 94.7314 82.9474 94.8062 82.9474H104.725C104.8 82.9474 104.871 82.9771 104.924 83.03C104.977 83.0829 105.007 83.1546 105.007 83.2294C105.007 83.3042 104.977 83.3759 104.924 83.4288C104.871 83.4816 104.8 83.5113 104.725 83.5113Z" fill="white"/>
<path d="M114.114 83.5113H107.234C107.16 83.5113 107.088 83.4816 107.035 83.4288C106.982 83.3759 106.952 83.3042 106.952 83.2294C106.952 83.1546 106.982 83.0829 107.035 83.03C107.088 82.9771 107.16 82.9474 107.234 82.9474H114.114C114.189 82.9474 114.26 82.9771 114.313 83.03C114.366 83.0829 114.396 83.1546 114.396 83.2294C114.396 83.3042 114.366 83.3759 114.313 83.4288C114.26 83.4816 114.189 83.5113 114.114 83.5113Z" fill="#68E1FD"/>
<path d="M123.615 83.5113H115.101C115.026 83.5113 114.954 83.4816 114.901 83.4288C114.848 83.3759 114.819 83.3042 114.819 83.2294C114.819 83.1546 114.848 83.0829 114.901 83.03C114.954 82.9771 115.026 82.9474 115.101 82.9474H123.615C123.69 82.9474 123.762 82.9771 123.815 83.03C123.868 83.0829 123.897 83.1546 123.897 83.2294C123.897 83.3042 123.868 83.3759 123.815 83.4288C123.762 83.4816 123.69 83.5113 123.615 83.5113Z" fill="#68E1FD"/>
<path d="M109.665 86.9849H95.2404C95.1656 86.9849 95.0939 86.9552 95.041 86.9023C94.9882 86.8494 94.9584 86.7777 94.9584 86.7029C94.9584 86.6282 94.9882 86.5565 95.041 86.5036C95.0939 86.4507 95.1656 86.421 95.2404 86.421H109.665C109.739 86.421 109.811 86.4507 109.864 86.5036C109.917 86.5565 109.947 86.6282 109.947 86.7029C109.947 86.7777 109.917 86.8494 109.864 86.9023C109.811 86.9552 109.739 86.9849 109.665 86.9849Z" fill="white"/>
<path d="M118.027 86.9849H111.537C111.462 86.9849 111.39 86.9552 111.337 86.9023C111.285 86.8494 111.255 86.7777 111.255 86.7029C111.255 86.6282 111.285 86.5565 111.337 86.5036C111.39 86.4507 111.462 86.421 111.537 86.421H118.027C118.102 86.421 118.174 86.4507 118.227 86.5036C118.279 86.5565 118.309 86.6282 118.309 86.7029C118.309 86.7777 118.279 86.8494 118.227 86.9023C118.174 86.9552 118.102 86.9849 118.027 86.9849Z" fill="#68E1FD"/>
<path d="M138.429 86.9849H123.204C123.129 86.9849 123.057 86.9552 123.004 86.9023C122.951 86.8494 122.922 86.7777 122.922 86.7029C122.922 86.6282 122.951 86.5565 123.004 86.5036C123.057 86.4507 123.129 86.421 123.204 86.421H138.429C138.503 86.421 138.575 86.4507 138.628 86.5036C138.681 86.5565 138.711 86.6282 138.711 86.7029C138.711 86.7777 138.681 86.8494 138.628 86.9023C138.575 86.9552 138.503 86.9849 138.429 86.9849Z" fill="#68E1FD"/>
<path d="M126.553 62.6644H119.843C119.768 62.6644 119.696 62.6347 119.644 62.5818C119.591 62.5289 119.561 62.4572 119.561 62.3824C119.562 62.3081 119.593 62.2372 119.645 62.1847C119.698 62.1321 119.769 62.1019 119.843 62.1005H126.553C126.627 62.1019 126.698 62.1321 126.751 62.1847C126.803 62.2372 126.834 62.3081 126.835 62.3824C126.835 62.4572 126.805 62.5289 126.753 62.5818C126.7 62.6347 126.628 62.6644 126.553 62.6644Z" fill="#68E1FD"/>
<path d="M131.521 62.7038C129.198 62.7038 129.124 62.6587 129.068 62.6305C129.003 62.5938 128.955 62.5328 128.935 62.461C128.915 62.3891 128.924 62.3122 128.961 62.2471C128.99 62.1915 129.037 62.1476 129.095 62.1229C129.152 62.0982 129.217 62.0943 129.277 62.1118C129.671 62.1569 133.996 62.1118 136.838 62.1118C136.913 62.1118 136.985 62.1415 137.038 62.1943C137.091 62.2472 137.12 62.3189 137.12 62.3937C137.12 62.4685 137.091 62.5402 137.038 62.5931C136.985 62.6459 136.913 62.6756 136.838 62.6756C134.352 62.6926 132.666 62.7038 131.521 62.7038Z" fill="#68E1FD"/>
<path d="M125.482 55.7173H115.743C115.669 55.7173 115.597 55.6876 115.544 55.6347C115.491 55.5818 115.461 55.5101 115.461 55.4353C115.461 55.3605 115.491 55.2888 115.544 55.2359C115.597 55.1831 115.669 55.1534 115.743 55.1534H125.482C125.557 55.1534 125.628 55.1831 125.681 55.2359C125.734 55.2888 125.764 55.3605 125.764 55.4353C125.764 55.5101 125.734 55.5818 125.681 55.6347C125.628 55.6876 125.557 55.7173 125.482 55.7173Z" fill="#68E1FD"/>
<path d="M137.12 55.7173H127.433C127.358 55.7173 127.286 55.6876 127.233 55.6347C127.181 55.5818 127.151 55.5101 127.151 55.4353C127.151 55.3605 127.181 55.2888 127.233 55.2359C127.286 55.1831 127.358 55.1534 127.433 55.1534H137.12C137.195 55.1534 137.267 55.1831 137.32 55.2359C137.373 55.2888 137.402 55.3605 137.402 55.4353C137.402 55.5101 137.373 55.5818 137.32 55.6347C137.267 55.6876 137.195 55.7173 137.12 55.7173Z" fill="#68E1FD"/>
<path d="M116.522 52.2606C113.138 52.2606 113.093 52.2606 113.059 52.2606C112.987 52.2397 112.927 52.1911 112.891 52.1255C112.855 52.0599 112.847 51.9828 112.868 51.911C112.886 51.8454 112.928 51.7887 112.985 51.7514C113.042 51.714 113.11 51.6986 113.178 51.708C113.55 51.708 120.052 51.708 124.36 51.708C124.434 51.708 124.506 51.7377 124.559 51.7906C124.612 51.8434 124.642 51.9152 124.642 51.9899C124.642 52.0647 124.612 52.1364 124.559 52.1893C124.506 52.2422 124.434 52.2719 124.36 52.2719L116.522 52.2606Z" fill="#68E1FD"/>
<path d="M127.016 52.2437C126.975 52.2438 126.934 52.2347 126.897 52.2171C126.86 52.1996 126.827 52.174 126.801 52.1422C126.754 52.0843 126.73 52.0099 126.737 51.9351C126.743 51.8603 126.778 51.791 126.835 51.7418C126.937 51.6629 127.055 51.5614 133.681 51.6798C133.755 51.6798 133.827 51.7095 133.88 51.7624C133.933 51.8153 133.963 51.887 133.963 51.9618C133.963 52.0365 133.933 52.1082 133.88 52.1611C133.827 52.214 133.755 52.2437 133.681 52.2437C131.352 52.1986 127.54 52.1591 127.128 52.2437C127.091 52.2504 127.053 52.2504 127.016 52.2437Z" fill="white"/>
<path d="M117.61 76.5417H112.619C112.545 76.5417 112.473 76.512 112.42 76.4591C112.367 76.4062 112.337 76.3345 112.337 76.2597C112.337 76.185 112.367 76.1132 112.42 76.0604C112.473 76.0075 112.545 75.9778 112.619 75.9778H117.638C117.713 75.9778 117.785 76.0075 117.837 76.0604C117.89 76.1132 117.92 76.185 117.92 76.2597C117.919 76.299 117.911 76.3377 117.894 76.3735C117.878 76.4093 117.855 76.4414 117.826 76.4678C117.797 76.4942 117.763 76.5144 117.726 76.5271C117.688 76.5398 117.649 76.5448 117.61 76.5417Z" fill="#68E1FD"/>
<path d="M106.09 80.0378H102.402C102.327 80.0378 102.255 80.0081 102.202 79.9552C102.15 79.9023 102.12 79.8306 102.12 79.7559C102.12 79.6811 102.15 79.6094 102.202 79.5565C102.255 79.5036 102.327 79.4739 102.402 79.4739H106.09C106.164 79.4739 106.236 79.5036 106.289 79.5565C106.342 79.6094 106.372 79.6811 106.372 79.7559C106.372 79.8306 106.342 79.9023 106.289 79.9552C106.236 80.0081 106.164 80.0378 106.09 80.0378Z" fill="#68E1FD"/>
<path d="M116.268 80.0378H107.494C107.419 80.0364 107.348 80.0062 107.296 79.9536C107.243 79.9011 107.213 79.8302 107.212 79.7559C107.212 79.6811 107.241 79.6094 107.294 79.5565C107.347 79.5036 107.419 79.4739 107.494 79.4739H116.268C116.343 79.4739 116.414 79.5036 116.467 79.5565C116.52 79.6094 116.55 79.6811 116.55 79.7559C116.55 79.8306 116.52 79.9023 116.467 79.9552C116.414 80.0081 116.343 80.0378 116.268 80.0378Z" fill="white"/>
<path d="M135.028 80.0378H118.027C117.952 80.0378 117.881 80.0081 117.828 79.9552C117.775 79.9023 117.745 79.8306 117.745 79.7559C117.745 79.6811 117.775 79.6094 117.828 79.5565C117.881 79.5036 117.952 79.4739 118.027 79.4739H135.028C135.103 79.4739 135.175 79.5036 135.228 79.5565C135.281 79.6094 135.31 79.6811 135.31 79.7559C135.309 79.8302 135.279 79.9011 135.226 79.9536C135.174 80.0062 135.103 80.0364 135.028 80.0378Z" fill="#68E1FD"/>
<path d="M98.0768 42.5786H93.1145C93.0398 42.5786 92.968 42.5489 92.9152 42.4961C92.8623 42.4432 92.8326 42.3715 92.8326 42.2967C92.8326 42.2219 92.8623 42.1502 92.9152 42.0973C92.968 42.0445 93.0398 42.0148 93.1145 42.0148H98.0768C98.1515 42.0148 98.2232 42.0445 98.2761 42.0973C98.329 42.1502 98.3587 42.2219 98.3587 42.2967C98.3573 42.371 98.3271 42.4419 98.2745 42.4945C98.222 42.547 98.1511 42.5772 98.0768 42.5786Z" fill="white"/>
<path d="M103.744 46.0522H93.8476C93.7728 46.0522 93.7011 46.0225 93.6482 45.9696C93.5953 45.9167 93.5656 45.845 93.5656 45.7703C93.5656 45.6955 93.5953 45.6238 93.6482 45.5709C93.7011 45.518 93.7728 45.4883 93.8476 45.4883H103.744C103.819 45.4883 103.89 45.518 103.943 45.5709C103.996 45.6238 104.026 45.6955 104.026 45.7703C104.026 45.845 103.996 45.9167 103.943 45.9696C103.89 46.0225 103.819 46.0522 103.744 46.0522Z" fill="white"/>
<path d="M113.183 46.0522H106.304C106.229 46.0522 106.157 46.0225 106.105 45.9696C106.052 45.9167 106.022 45.845 106.022 45.7703C106.022 45.6955 106.052 45.6238 106.105 45.5709C106.157 45.518 106.229 45.4883 106.304 45.4883H113.183C113.258 45.4883 113.33 45.518 113.383 45.5709C113.436 45.6238 113.465 45.6955 113.465 45.7703C113.465 45.845 113.436 45.9167 113.383 45.9696C113.33 46.0225 113.258 46.0522 113.183 46.0522Z" fill="#68E1FD"/>
<path d="M122.657 46.0522H114.142C114.067 46.0522 113.995 46.0225 113.943 45.9696C113.89 45.9167 113.86 45.845 113.86 45.7703C113.86 45.6955 113.89 45.6238 113.943 45.5709C113.995 45.518 114.067 45.4883 114.142 45.4883H122.657C122.731 45.4883 122.803 45.518 122.856 45.5709C122.909 45.6238 122.939 45.6955 122.939 45.7703C122.939 45.845 122.909 45.9167 122.856 45.9696C122.803 46.0225 122.731 46.0522 122.657 46.0522Z" fill="#68E1FD"/>
<path d="M108.706 49.5257H94.2818C94.207 49.5257 94.1353 49.496 94.0824 49.4432C94.0295 49.3903 93.9998 49.3186 93.9998 49.2438C93.9998 49.169 94.0295 49.0973 94.0824 49.0444C94.1353 48.9916 94.207 48.9619 94.2818 48.9619H108.706C108.781 48.9619 108.853 48.9916 108.905 49.0444C108.958 49.0973 108.988 49.169 108.988 49.2438C108.988 49.3186 108.958 49.3903 108.905 49.4432C108.853 49.496 108.781 49.5257 108.706 49.5257Z" fill="white"/>
<path d="M117.069 49.5257H110.578C110.503 49.5257 110.432 49.496 110.379 49.4432C110.326 49.3903 110.296 49.3186 110.296 49.2438C110.296 49.169 110.326 49.0973 110.379 49.0444C110.432 48.9916 110.503 48.9619 110.578 48.9619H117.069C117.143 48.9619 117.215 48.9916 117.268 49.0444C117.321 49.0973 117.35 49.169 117.35 49.2438C117.35 49.3186 117.321 49.3903 117.268 49.4432C117.215 49.496 117.143 49.5257 117.069 49.5257Z" fill="#68E1FD"/>
<path d="M137.47 49.5257H122.245C122.17 49.5257 122.099 49.496 122.046 49.4432C121.993 49.3903 121.963 49.3186 121.963 49.2438C121.963 49.169 121.993 49.0973 122.046 49.0444C122.099 48.9916 122.17 48.9619 122.245 48.9619H137.47C137.545 48.9619 137.617 48.9916 137.669 49.0444C137.722 49.0973 137.752 49.169 137.752 49.2438C137.752 49.3186 137.722 49.3903 137.669 49.4432C137.617 49.496 137.545 49.5257 137.47 49.5257Z" fill="#68E1FD"/>
<path d="M105.131 42.5786H101.443C101.368 42.5786 101.297 42.5489 101.244 42.4961C101.191 42.4432 101.161 42.3715 101.161 42.2967C101.161 42.2219 101.191 42.1502 101.244 42.0973C101.297 42.0445 101.368 42.0148 101.443 42.0148H105.131C105.206 42.0148 105.277 42.0445 105.33 42.0973C105.383 42.1502 105.413 42.2219 105.413 42.2967C105.413 42.3715 105.383 42.4432 105.33 42.4961C105.277 42.5489 105.206 42.5786 105.131 42.5786Z" fill="#68E1FD"/>
<path d="M115.309 42.5786H106.535C106.461 42.5772 106.39 42.547 106.337 42.4945C106.285 42.4419 106.255 42.371 106.253 42.2967C106.253 42.2219 106.283 42.1502 106.336 42.0973C106.389 42.0445 106.46 42.0148 106.535 42.0148H115.309C115.384 42.0148 115.456 42.0445 115.509 42.0973C115.561 42.1502 115.591 42.2219 115.591 42.2967C115.591 42.3715 115.561 42.4432 115.509 42.4961C115.456 42.5489 115.384 42.5786 115.309 42.5786Z" fill="white"/>
<path d="M134.047 42.5786H117.069C116.994 42.5786 116.922 42.5489 116.869 42.4961C116.816 42.4432 116.787 42.3715 116.787 42.2967C116.787 42.2219 116.816 42.1502 116.869 42.0973C116.922 42.0445 116.994 42.0148 117.069 42.0148H134.047C134.122 42.0148 134.194 42.0445 134.247 42.0973C134.299 42.1502 134.329 42.2219 134.329 42.2967C134.328 42.371 134.298 42.4419 134.245 42.4945C134.192 42.547 134.122 42.5772 134.047 42.5786Z" fill="#68E1FD"/>
<path d="M101.077 90.8363H94.4284C94.3536 90.8363 94.2819 90.8065 94.229 90.7537C94.1761 90.7008 94.1464 90.6291 94.1464 90.5543C94.1479 90.48 94.1781 90.4091 94.2306 90.3565C94.2832 90.304 94.3541 90.2738 94.4284 90.2724H101.077C101.151 90.2724 101.223 90.3021 101.276 90.3549C101.329 90.4078 101.359 90.4795 101.359 90.5543C101.359 90.6291 101.329 90.7008 101.276 90.7537C101.223 90.8065 101.151 90.8363 101.077 90.8363Z" fill="#68E1FD"/>
<path d="M105.582 90.8363H103.597C103.522 90.8363 103.451 90.8065 103.398 90.7537C103.345 90.7008 103.315 90.6291 103.315 90.5543C103.315 90.4795 103.345 90.4078 103.398 90.3549C103.451 90.3021 103.522 90.2724 103.597 90.2724H105.565C105.64 90.2738 105.71 90.304 105.763 90.3565C105.816 90.4091 105.846 90.48 105.847 90.5543C105.847 90.6262 105.82 90.6955 105.771 90.7479C105.721 90.8003 105.654 90.8319 105.582 90.8363Z" fill="#68E1FD"/>
<path d="M96.0919 93.7065H93.0581C92.9834 93.7065 92.9117 93.6768 92.8588 93.6239C92.8059 93.571 92.7762 93.4993 92.7762 93.4245C92.7762 93.3497 92.8059 93.278 92.8588 93.2252C92.9117 93.1723 92.9834 93.1426 93.0581 93.1426H96.0919C96.1666 93.1426 96.2383 93.1723 96.2912 93.2252C96.3441 93.278 96.3738 93.3497 96.3738 93.4245C96.3738 93.4993 96.3441 93.571 96.2912 93.6239C96.2383 93.6768 96.1666 93.7065 96.0919 93.7065Z" fill="#68E1FD"/>
<path d="M89.6184 41.7497H88.7669V42.6012H89.6184V41.7497Z" fill="#D1D3D4"/>
<path d="M89.6184 45.1669H88.7669V46.0184H89.6184V45.1669Z" fill="#D1D3D4"/>
<path d="M89.6184 48.5841H88.7669V49.4355H89.6184V48.5841Z" fill="#D1D3D4"/>
<path d="M89.6184 52.0012H88.7669V52.8527H89.6184V52.0012Z" fill="#D1D3D4"/>
<path d="M89.6184 55.4184H88.7669V56.2699H89.6184V55.4184Z" fill="#D1D3D4"/>
<path d="M89.6184 58.8356H88.7669V59.687H89.6184V58.8356Z" fill="#D1D3D4"/>
<path d="M89.6184 62.2584H88.7669V63.1098H89.6184V62.2584Z" fill="#D1D3D4"/>
<path d="M89.6184 65.6755H88.7669V66.527H89.6184V65.6755Z" fill="#D1D3D4"/>
<path d="M89.6184 69.0927H88.7669V69.9442H89.6184V69.0927Z" fill="#D1D3D4"/>
<path d="M89.6184 72.5099H88.7669V73.3613H89.6184V72.5099Z" fill="#D1D3D4"/>
<path d="M89.6184 75.927H88.7669V76.7785H89.6184V75.927Z" fill="#D1D3D4"/>
<path d="M89.6184 79.3442H88.7669V80.1957H89.6184V79.3442Z" fill="#D1D3D4"/>
<path d="M89.6184 82.7614H88.7669V83.6128H89.6184V82.7614Z" fill="#D1D3D4"/>
<path d="M89.6184 86.1785H88.7669V87.03H89.6184V86.1785Z" fill="#D1D3D4"/>
<path d="M89.6184 89.6126H88.7669V90.4641H89.6184V89.6126Z" fill="#D1D3D4"/>
<path d="M89.6184 93.0467H88.7669V93.8982H89.6184V93.0467Z" fill="#D1D3D4"/>
<path d="M65.3092 47.648H62.9972C62.9224 47.648 62.8507 47.6183 62.7979 47.5654C62.745 47.5125 62.7153 47.4408 62.7153 47.3661C62.7153 47.2913 62.745 47.2196 62.7979 47.1667C62.8507 47.1138 62.9224 47.0841 62.9972 47.0841H65.3035C65.3783 47.0841 65.45 47.1138 65.5029 47.1667C65.5558 47.2196 65.5855 47.2913 65.5855 47.3661C65.5855 47.4399 65.5566 47.5107 65.5049 47.5635C65.4532 47.6162 65.383 47.6465 65.3092 47.648Z" fill="white"/>
<path d="M71.1341 47.648H66.5272C66.4524 47.648 66.3807 47.6183 66.3278 47.5654C66.2749 47.5125 66.2452 47.4408 66.2452 47.3661C66.2452 47.2913 66.2749 47.2196 66.3278 47.1667C66.3807 47.1138 66.4524 47.0841 66.5272 47.0841H71.1341C71.2089 47.0841 71.2806 47.1138 71.3335 47.1667C71.3864 47.2196 71.4161 47.2913 71.4161 47.3661C71.4161 47.4408 71.3864 47.5125 71.3335 47.5654C71.2806 47.6183 71.2089 47.648 71.1341 47.648Z" fill="black"/>
<path d="M72.5213 49.9261H67.9143C67.8396 49.9261 67.7678 49.8964 67.715 49.8435C67.6621 49.7907 67.6324 49.7189 67.6324 49.6442C67.6324 49.5694 67.6621 49.4977 67.715 49.4448C67.7678 49.3919 67.8396 49.3622 67.9143 49.3622H72.5213C72.5961 49.3622 72.6678 49.3919 72.7207 49.4448C72.7736 49.4977 72.8033 49.5694 72.8033 49.6442C72.8018 49.7185 72.7716 49.7894 72.7191 49.8419C72.6665 49.8945 72.5956 49.9247 72.5213 49.9261Z" fill="black"/>
<path d="M65.8505 49.9261H63.5611C63.4863 49.9261 63.4146 49.8964 63.3618 49.8435C63.3089 49.7907 63.2792 49.7189 63.2792 49.6442C63.2792 49.5694 63.3089 49.4977 63.3618 49.4448C63.4146 49.3919 63.4863 49.3622 63.5611 49.3622H65.8674C65.9422 49.3622 66.0139 49.3919 66.0668 49.4448C66.1197 49.4977 66.1494 49.5694 66.1494 49.6442C66.1494 49.6827 66.1416 49.7208 66.1264 49.7561C66.1112 49.7915 66.0889 49.8233 66.0609 49.8498C66.0329 49.8762 65.9998 49.8966 65.9636 49.9097C65.9274 49.9228 65.8889 49.9284 65.8505 49.9261Z" fill="white"/>
<path d="M65.9407 52.1986H64.0855C64.0107 52.1986 63.939 52.1689 63.8862 52.116C63.8333 52.0631 63.8036 51.9914 63.8036 51.9166C63.8036 51.8419 63.8333 51.7702 63.8862 51.7173C63.939 51.6644 64.0107 51.6347 64.0855 51.6347H65.9407C66.0155 51.6347 66.0872 51.6644 66.1401 51.7173C66.193 51.7702 66.2227 51.8419 66.2227 51.9166C66.2227 51.9914 66.193 52.0631 66.1401 52.116C66.0872 52.1689 66.0155 52.1986 65.9407 52.1986Z" fill="white"/>
<path d="M73.3446 52.1986H67.576C67.5017 52.1971 67.4308 52.167 67.3782 52.1144C67.3257 52.0618 67.2955 51.991 67.2941 51.9166C67.2941 51.8419 67.3238 51.7702 67.3766 51.7173C67.4295 51.6644 67.5012 51.6347 67.576 51.6347H73.3446C73.4194 51.6347 73.4911 51.6644 73.5439 51.7173C73.5968 51.7702 73.6265 51.8419 73.6265 51.9166C73.6265 51.9914 73.5968 52.0631 73.5439 52.116C73.4911 52.1689 73.4194 52.1986 73.3446 52.1986Z" fill="black"/>
<path d="M68.1286 54.4711H65.1174C65.0427 54.4711 64.971 54.4413 64.9181 54.3885C64.8652 54.3356 64.8355 54.2639 64.8355 54.1891C64.8355 54.1143 64.8652 54.0426 64.9181 53.9897C64.971 53.9369 65.0427 53.9072 65.1174 53.9072H68.1286C68.2034 53.9072 68.2751 53.9369 68.328 53.9897C68.3808 54.0426 68.4106 54.1143 68.4106 54.1891C68.4106 54.2639 68.3808 54.3356 68.328 54.3885C68.2751 54.4413 68.2034 54.4711 68.1286 54.4711Z" fill="white"/>
<path d="M78.0305 54.4711H69.0985C69.0237 54.4711 68.952 54.4413 68.8991 54.3885C68.8463 54.3356 68.8166 54.2639 68.8166 54.1891C68.8166 54.1143 68.8463 54.0426 68.8991 53.9897C68.952 53.9369 69.0237 53.9072 69.0985 53.9072H78.0305C78.1053 53.9072 78.177 53.9369 78.2299 53.9897C78.2827 54.0426 78.3124 54.1143 78.3124 54.1891C78.3124 54.2639 78.2827 54.3356 78.2299 54.3885C78.177 54.4413 78.1053 54.4711 78.0305 54.4711Z" fill="black"/>
<path d="M67.3335 56.7435H64.3224C64.2476 56.7435 64.1759 56.7138 64.123 56.661C64.0701 56.6081 64.0404 56.5364 64.0404 56.4616C64.0404 56.3868 64.0701 56.3151 64.123 56.2622C64.1759 56.2093 64.2476 56.1796 64.3224 56.1796H67.3335C67.4083 56.1796 67.48 56.2093 67.5329 56.2622C67.5858 56.3151 67.6155 56.3868 67.6155 56.4616C67.6155 56.5364 67.5858 56.6081 67.5329 56.661C67.48 56.7138 67.4083 56.7435 67.3335 56.7435Z" fill="white"/>
<path d="M73.3277 56.7435H68.4839C68.4091 56.7435 68.3374 56.7138 68.2845 56.661C68.2316 56.6081 68.2019 56.5364 68.2019 56.4616C68.2019 56.3868 68.2316 56.3151 68.2845 56.2622C68.3374 56.2093 68.4091 56.1796 68.4839 56.1796H73.3277C73.4025 56.1796 73.4742 56.2093 73.527 56.2622C73.5799 56.3151 73.6096 56.3868 73.6096 56.4616C73.6096 56.5364 73.5799 56.6081 73.527 56.661C73.4742 56.7138 73.4025 56.7435 73.3277 56.7435Z" fill="black"/>
<path d="M78.6902 56.7435H75.1772C75.1024 56.7435 75.0307 56.7138 74.9779 56.661C74.925 56.6081 74.8953 56.5364 74.8953 56.4616C74.8953 56.3868 74.925 56.3151 74.9779 56.2622C75.0307 56.2093 75.1024 56.1796 75.1772 56.1796H78.6902C78.765 56.1796 78.8367 56.2093 78.8896 56.2622C78.9425 56.3151 78.9722 56.3868 78.9722 56.4616C78.9722 56.5364 78.9425 56.6081 78.8896 56.661C78.8367 56.7138 78.765 56.7435 78.6902 56.7435Z" fill="black"/>
<path d="M65.3599 59.016H64.3224C64.2476 59.016 64.1759 58.9863 64.123 58.9334C64.0701 58.8806 64.0404 58.8088 64.0404 58.7341C64.0404 58.6593 64.0701 58.5876 64.123 58.5347C64.1759 58.4818 64.2476 58.4521 64.3224 58.4521H65.3599C65.4342 58.4536 65.5051 58.4837 65.5577 58.5363C65.6103 58.5889 65.6404 58.6597 65.6419 58.7341C65.6419 58.8088 65.6122 58.8806 65.5593 58.9334C65.5064 58.9863 65.4347 59.016 65.3599 59.016Z" fill="white"/>
<path d="M73.3277 59.016H67.1249C67.0501 59.016 66.9784 58.9863 66.9255 58.9334C66.8727 58.8806 66.843 58.8088 66.843 58.7341C66.843 58.6593 66.8727 58.5876 66.9255 58.5347C66.9784 58.4818 67.0501 58.4521 67.1249 58.4521H73.3277C73.4025 58.4521 73.4742 58.4818 73.527 58.5347C73.5799 58.5876 73.6096 58.6593 73.6096 58.7341C73.6096 58.8088 73.5799 58.8806 73.527 58.9334C73.4742 58.9863 73.4025 59.016 73.3277 59.016Z" fill="black"/>
<path d="M75.7693 59.016H74.0438C73.969 59.016 73.8973 58.9863 73.8444 58.9334C73.7916 58.8806 73.7619 58.8088 73.7619 58.7341C73.7619 58.6593 73.7916 58.5876 73.8444 58.5347C73.8973 58.4818 73.969 58.4521 74.0438 58.4521H75.7693C75.8441 58.4521 75.9158 58.4818 75.9687 58.5347C76.0215 58.5876 76.0512 58.6593 76.0512 58.7341C76.0512 58.8088 76.0215 58.8806 75.9687 58.9334C75.9158 58.9863 75.8441 59.016 75.7693 59.016Z" fill="black"/>
<path d="M65.952 61.3167H64.3224C64.2476 61.3167 64.1759 61.287 64.123 61.2341C64.0701 61.1812 64.0404 61.1095 64.0404 61.0347C64.0404 60.9599 64.0701 60.8882 64.123 60.8354C64.1759 60.7825 64.2476 60.7528 64.3224 60.7528H65.952C66.0263 60.7542 66.0972 60.7844 66.1498 60.837C66.2023 60.8895 66.2325 60.9604 66.2339 61.0347C66.2339 61.1095 66.2042 61.1812 66.1514 61.2341C66.0985 61.287 66.0268 61.3167 65.952 61.3167Z" fill="white"/>
<path d="M74.8389 61.3167H67.5083C67.4336 61.3167 67.3619 61.287 67.309 61.2341C67.2561 61.1812 67.2264 61.1095 67.2264 61.0347C67.2264 60.9599 67.2561 60.8882 67.309 60.8354C67.3619 60.7825 67.4336 60.7528 67.5083 60.7528H74.8389C74.9137 60.7528 74.9854 60.7825 75.0383 60.8354C75.0911 60.8882 75.1208 60.9599 75.1208 61.0347C75.1208 61.1095 75.0911 61.1812 75.0383 61.2341C74.9854 61.287 74.9137 61.3167 74.8389 61.3167Z" fill="black"/>
<path d="M78.5831 61.3167H75.5719C75.4972 61.3167 75.4254 61.287 75.3726 61.2341C75.3197 61.1812 75.29 61.1095 75.29 61.0347C75.2914 60.9604 75.3216 60.8895 75.3742 60.837C75.4267 60.7844 75.4976 60.7542 75.5719 60.7528H78.5831C78.6579 60.7528 78.7296 60.7825 78.7825 60.8354C78.8353 60.8882 78.865 60.9599 78.865 61.0347C78.865 61.1095 78.8353 61.1812 78.7825 61.2341C78.7296 61.287 78.6579 61.3167 78.5831 61.3167Z" fill="black"/>
<path d="M65.2133 63.5722H63.6175C63.5427 63.5722 63.471 63.5425 63.4181 63.4896C63.3653 63.4368 63.3356 63.3651 63.3356 63.2903C63.3356 63.2155 63.3653 63.1438 63.4181 63.0909C63.471 63.038 63.5427 63.0083 63.6175 63.0083H65.2133C65.2881 63.0083 65.3598 63.038 65.4127 63.0909C65.4655 63.1438 65.4952 63.2155 65.4952 63.2903C65.4938 63.3646 65.4636 63.4355 65.4111 63.488C65.3585 63.5406 65.2876 63.5708 65.2133 63.5722Z" fill="white"/>
<path d="M74.0438 63.5722H67.0685C66.9942 63.5708 66.9233 63.5406 66.8707 63.488C66.8182 63.4355 66.788 63.3646 66.7866 63.2903C66.7866 63.2155 66.8163 63.1438 66.8691 63.0909C66.922 63.038 66.9937 63.0083 67.0685 63.0083H74.0438C74.1186 63.0083 74.1903 63.038 74.2432 63.0909C74.296 63.1438 74.3257 63.2155 74.3257 63.2903C74.3243 63.3646 74.2941 63.4355 74.2416 63.488C74.189 63.5406 74.1181 63.5708 74.0438 63.5722Z" fill="black"/>
<path d="M66.623 65.8278H63.6175C63.5427 65.8278 63.471 65.7981 63.4181 65.7452C63.3653 65.6923 63.3356 65.6206 63.3356 65.5458C63.3356 65.4711 63.3653 65.3993 63.4181 65.3465C63.471 65.2936 63.5427 65.2639 63.6175 65.2639H66.623C66.6978 65.2639 66.7695 65.2936 66.8224 65.3465C66.8753 65.3993 66.905 65.4711 66.905 65.5458C66.905 65.6206 66.8753 65.6923 66.8224 65.7452C66.7695 65.7981 66.6978 65.8278 66.623 65.8278Z" fill="white"/>
<path d="M70.0628 68.1115H64.063C63.9882 68.1115 63.9165 68.0818 63.8636 68.0289C63.8107 67.9761 63.781 67.9044 63.781 67.8296C63.781 67.7548 63.8107 67.6831 63.8636 67.6302C63.9165 67.5773 63.9882 67.5476 64.063 67.5476H70.0628C70.1375 67.5476 70.2093 67.5773 70.2621 67.6302C70.315 67.6831 70.3447 67.7548 70.3447 67.8296C70.3447 67.9044 70.315 67.9761 70.2621 68.0289C70.2093 68.0818 70.1375 68.1115 70.0628 68.1115Z" fill="white"/>
<path d="M75.7693 68.1115H71.5965C71.5218 68.1115 71.45 68.0818 71.3972 68.0289C71.3443 67.9761 71.3146 67.9044 71.3146 67.8296C71.3146 67.7548 71.3443 67.6831 71.3972 67.6302C71.45 67.5773 71.5218 67.5476 71.5965 67.5476H75.7693C75.8441 67.5476 75.9158 67.5773 75.9687 67.6302C76.0216 67.6831 76.0513 67.7548 76.0513 67.8296C76.0513 67.9044 76.0216 67.9761 75.9687 68.0289C75.9158 68.0818 75.8441 68.1115 75.7693 68.1115Z" fill="black"/>
<path d="M78.8256 68.1115H76.367C76.2923 68.1115 76.2205 68.0818 76.1677 68.0289C76.1148 67.9761 76.0851 67.9044 76.0851 67.8296C76.0851 67.7548 76.1148 67.6831 76.1677 67.6302C76.2205 67.5773 76.2923 67.5476 76.367 67.5476H78.8256C78.9004 67.5476 78.9721 67.5773 79.025 67.6302C79.0778 67.6831 79.1075 67.7548 79.1075 67.8296C79.1075 67.9044 79.0778 67.9761 79.025 68.0289C78.9721 68.0818 78.9004 68.1115 78.8256 68.1115Z" fill="black"/>
<path d="M73.0739 70.384H64.3224C64.2476 70.384 64.1759 70.3543 64.123 70.3014C64.0701 70.2485 64.0404 70.1768 64.0404 70.1021C64.0404 70.0273 64.0701 69.9556 64.123 69.9027C64.1759 69.8498 64.2476 69.8201 64.3224 69.8201H73.0739C73.1487 69.8201 73.2204 69.8498 73.2733 69.9027C73.3262 69.9556 73.3559 70.0273 73.3559 70.1021C73.3559 70.1768 73.3262 70.2485 73.2733 70.3014C73.2204 70.3543 73.1487 70.384 73.0739 70.384Z" fill="white"/>
<path d="M78.1433 70.384H74.1961C74.1213 70.384 74.0496 70.3543 73.9967 70.3014C73.9438 70.2485 73.9141 70.1768 73.9141 70.1021C73.9141 70.0273 73.9438 69.9556 73.9967 69.9027C74.0496 69.8498 74.1213 69.8201 74.1961 69.8201H78.1433C78.2181 69.8201 78.2898 69.8498 78.3426 69.9027C78.3955 69.9556 78.4252 70.0273 78.4252 70.1021C78.4252 70.1768 78.3955 70.2485 78.3426 70.3014C78.2898 70.3543 78.2181 70.384 78.1433 70.384Z" fill="black"/>
<path d="M73.6491 47.6649C73.2092 47.6649 72.7751 47.6649 72.3409 47.6649C72.3036 47.665 72.2667 47.6575 72.2324 47.6429C72.1982 47.6283 72.1672 47.6069 72.1414 47.5801C72.1156 47.5532 72.0955 47.5214 72.0823 47.4865C72.0691 47.4517 72.063 47.4146 72.0646 47.3773C72.0712 47.3044 72.104 47.2363 72.1568 47.1856C72.2096 47.1348 72.279 47.1048 72.3521 47.101C73.0852 47.101 73.8183 47.101 74.5513 47.101H75.1772C75.252 47.101 75.3237 47.1307 75.3766 47.1836C75.4295 47.2365 75.4592 47.3082 75.4592 47.383C75.4592 47.4578 75.4295 47.5295 75.3766 47.5823C75.3237 47.6352 75.252 47.6649 75.1772 47.6649H73.6491Z" fill="black"/>
<path d="M77.8895 63.5722H74.8389C74.7646 63.5708 74.6937 63.5406 74.6411 63.488C74.5885 63.4355 74.5584 63.3646 74.5569 63.2903C74.5569 63.2155 74.5866 63.1438 74.6395 63.0909C74.6924 63.038 74.7641 63.0083 74.8389 63.0083H77.8839C77.9587 63.0083 78.0304 63.038 78.0832 63.0909C78.1361 63.1438 78.1658 63.2155 78.1658 63.2903C78.1658 63.3641 78.1369 63.435 78.0853 63.4877C78.0336 63.5404 77.9633 63.5707 77.8895 63.5722Z" fill="black"/>
<path d="M70.8917 65.8278H68.6361C68.5618 65.8263 68.4909 65.7962 68.4383 65.7436C68.3858 65.691 68.3556 65.6202 68.3542 65.5458C68.3542 65.4711 68.3839 65.3993 68.4367 65.3465C68.4896 65.2936 68.5613 65.2639 68.6361 65.2639H70.8917C70.9664 65.2639 71.0382 65.2936 71.091 65.3465C71.1439 65.3993 71.1736 65.4711 71.1736 65.5458C71.1736 65.6206 71.1439 65.6923 71.091 65.7452C71.0382 65.7981 70.9664 65.8278 70.8917 65.8278Z" fill="black"/>
<path d="M77.0944 65.8278H71.7713C71.697 65.8263 71.6261 65.7962 71.5736 65.7436C71.521 65.691 71.4908 65.6202 71.4894 65.5458C71.4894 65.4711 71.5191 65.3993 71.572 65.3465C71.6248 65.2936 71.6966 65.2639 71.7713 65.2639H77.0944C77.1692 65.2639 77.2409 65.2936 77.2938 65.3465C77.3467 65.3993 77.3764 65.4711 77.3764 65.5458C77.3764 65.6206 77.3467 65.6923 77.2938 65.7452C77.2409 65.7981 77.1692 65.8278 77.0944 65.8278Z" fill="white"/>
<path d="M65.3712 36.7762H63.7416C63.6668 36.7762 63.5951 36.7465 63.5422 36.6936C63.4893 36.6408 63.4596 36.5691 63.4596 36.4943C63.4596 36.4195 63.4893 36.3478 63.5422 36.2949C63.5951 36.242 63.6668 36.2123 63.7416 36.2123H65.3712C65.4455 36.2138 65.5164 36.2439 65.569 36.2965C65.6215 36.3491 65.6517 36.42 65.6531 36.4943C65.6531 36.5691 65.6234 36.6408 65.5706 36.6936C65.5177 36.7465 65.446 36.7762 65.3712 36.7762Z" fill="white"/>
<path d="M74.275 36.7762H66.8993C66.8246 36.7762 66.7528 36.7465 66.7 36.6936C66.6471 36.6408 66.6174 36.5691 66.6174 36.4943C66.6188 36.42 66.649 36.3491 66.7016 36.2965C66.7541 36.2439 66.825 36.2138 66.8993 36.2123H74.275C74.3498 36.2123 74.4215 36.242 74.4744 36.2949C74.5272 36.3478 74.5569 36.4195 74.5569 36.4943C74.5569 36.5691 74.5272 36.6408 74.4744 36.6936C74.4215 36.7465 74.3498 36.7762 74.275 36.7762Z" fill="black"/>
<path d="M78.0023 36.7762H74.9911C74.9164 36.7762 74.8446 36.7465 74.7918 36.6936C74.7389 36.6408 74.7092 36.5691 74.7092 36.4943C74.7106 36.42 74.7408 36.3491 74.7934 36.2965C74.8459 36.2439 74.9168 36.2138 74.9911 36.2123H78.0023C78.0766 36.2138 78.1475 36.2439 78.2001 36.2965C78.2526 36.3491 78.2828 36.42 78.2843 36.4943C78.2843 36.5691 78.2545 36.6408 78.2017 36.6936C78.1488 36.7465 78.0771 36.7762 78.0023 36.7762Z" fill="black"/>
<path d="M64.6325 39.0543H63.0367C62.9619 39.0543 62.8902 39.0246 62.8373 38.9718C62.7844 38.9189 62.7547 38.8472 62.7547 38.7724C62.7547 38.6976 62.7844 38.6259 62.8373 38.573C62.8902 38.5202 62.9619 38.4904 63.0367 38.4904H64.6325C64.7073 38.4904 64.779 38.5202 64.8319 38.573C64.8847 38.6259 64.9144 38.6976 64.9144 38.7724C64.913 38.8467 64.8828 38.9176 64.8303 38.9702C64.7777 39.0227 64.7068 39.0529 64.6325 39.0543Z" fill="white"/>
<path d="M73.4574 39.0543H66.4877C66.4134 39.0529 66.3425 39.0227 66.2899 38.9702C66.2374 38.9176 66.2072 38.8467 66.2058 38.7724C66.2058 38.6976 66.2355 38.6259 66.2883 38.573C66.3412 38.5202 66.4129 38.4904 66.4877 38.4904H73.4574C73.5321 38.4904 73.6039 38.5202 73.6567 38.573C73.7096 38.6259 73.7393 38.6976 73.7393 38.7724C73.7393 38.8472 73.7096 38.9189 73.6567 38.9718C73.6039 39.0246 73.5321 39.0543 73.4574 39.0543Z" fill="black"/>
<path d="M66.0422 41.3268H63.0367C62.9619 41.3268 62.8902 41.2971 62.8373 41.2442C62.7844 41.1914 62.7547 41.1196 62.7547 41.0449C62.7547 40.9701 62.7844 40.8984 62.8373 40.8455C62.8902 40.7926 62.9619 40.7629 63.0367 40.7629H66.0422C66.117 40.7629 66.1887 40.7926 66.2416 40.8455C66.2945 40.8984 66.3242 40.9701 66.3242 41.0449C66.3242 41.1196 66.2945 41.1914 66.2416 41.2442C66.1887 41.2971 66.117 41.3268 66.0422 41.3268Z" fill="white"/>
<path d="M67.9764 43.5993H63.3694C63.2946 43.5993 63.2229 43.5696 63.17 43.5167C63.1171 43.4638 63.0874 43.3921 63.0874 43.3173C63.0874 43.2426 63.1171 43.1708 63.17 43.118C63.2229 43.0651 63.2946 43.0354 63.3694 43.0354H67.9764C68.0511 43.0354 68.1228 43.0651 68.1757 43.118C68.2286 43.1708 68.2583 43.2426 68.2583 43.3173C68.2583 43.3921 68.2286 43.4638 68.1757 43.5167C68.1228 43.5696 68.0511 43.5993 67.9764 43.5993Z" fill="white"/>
<path d="M72.3578 43.5993H69.1549C69.0801 43.5993 69.0084 43.5696 68.9555 43.5167C68.9026 43.4638 68.8729 43.3921 68.8729 43.3173C68.8729 43.2426 68.9026 43.1708 68.9555 43.118C69.0084 43.0651 69.0801 43.0354 69.1549 43.0354H72.3578C72.4326 43.0354 72.5043 43.0651 72.5571 43.118C72.61 43.1708 72.6397 43.2426 72.6397 43.3173C72.6397 43.3921 72.61 43.4638 72.5571 43.5167C72.5043 43.5696 72.4326 43.5993 72.3578 43.5993Z" fill="black"/>
<path d="M75.0814 43.5993H72.8258C72.751 43.5993 72.6793 43.5696 72.6264 43.5167C72.5736 43.4638 72.5439 43.3921 72.5439 43.3173C72.5439 43.2426 72.5736 43.1708 72.6264 43.118C72.6793 43.0651 72.751 43.0354 72.8258 43.0354H75.0814C75.1561 43.0354 75.2279 43.0651 75.2807 43.118C75.3336 43.1708 75.3633 43.2426 75.3633 43.3173C75.3633 43.3921 75.3336 43.4638 75.2807 43.5167C75.2279 43.5696 75.1561 43.5993 75.0814 43.5993Z" fill="black"/>
<path d="M70.2827 45.8718H63.5611C63.4863 45.8718 63.4146 45.842 63.3618 45.7892C63.3089 45.7363 63.2792 45.6646 63.2792 45.5898C63.2792 45.515 63.3089 45.4433 63.3618 45.3904C63.4146 45.3376 63.4863 45.3079 63.5611 45.3079H70.277C70.3518 45.3079 70.4235 45.3376 70.4764 45.3904C70.5293 45.4433 70.559 45.515 70.559 45.5898C70.559 45.6646 70.5293 45.7363 70.4764 45.7892C70.4235 45.842 70.3518 45.8718 70.277 45.8718H70.2827Z" fill="white"/>
<path d="M74.1791 45.8718H71.1567C71.0819 45.8718 71.0102 45.842 70.9573 45.7892C70.9044 45.7363 70.8747 45.6646 70.8747 45.5898C70.8747 45.515 70.9044 45.4433 70.9573 45.3904C71.0102 45.3376 71.0819 45.3079 71.1567 45.3079H74.1791C74.2539 45.3079 74.3256 45.3376 74.3785 45.3904C74.4314 45.4433 74.4611 45.515 74.4611 45.5898C74.4611 45.6646 74.4314 45.7363 74.3785 45.7892C74.3256 45.842 74.2539 45.8718 74.1791 45.8718Z" fill="black"/>
<path d="M77.3087 39.0543H74.275C74.2007 39.0529 74.1298 39.0227 74.0772 38.9702C74.0247 38.9176 73.9945 38.8467 73.993 38.7724C73.993 38.6976 74.0228 38.6259 74.0756 38.573C74.1285 38.5202 74.2002 38.4904 74.275 38.4904H77.32C77.3948 38.4904 77.4665 38.5202 77.5194 38.573C77.5722 38.6259 77.6019 38.6976 77.6019 38.7724C77.602 38.8104 77.5943 38.848 77.5795 38.883C77.5646 38.9179 77.5428 38.9495 77.5154 38.9759C77.488 39.0022 77.4556 39.0227 77.4201 39.0362C77.3846 39.0497 77.3467 39.0559 77.3087 39.0543Z" fill="black"/>
<path d="M70.3278 41.3268H68.0722C67.9979 41.3254 67.927 41.2952 67.8745 41.2426C67.8219 41.1901 67.7917 41.1192 67.7903 41.0449C67.7903 40.9701 67.82 40.8984 67.8729 40.8455C67.9257 40.7926 67.9975 40.7629 68.0722 40.7629H70.3278C70.4026 40.7629 70.4743 40.7926 70.5271 40.8455C70.58 40.8984 70.6097 40.9701 70.6097 41.0449C70.6097 41.1196 70.58 41.1914 70.5271 41.2442C70.4743 41.2971 70.4026 41.3268 70.3278 41.3268Z" fill="black"/>
<path d="M76.4967 41.3268H71.1736C71.0993 41.3254 71.0284 41.2952 70.9758 41.2426C70.9233 41.1901 70.8931 41.1192 70.8917 41.0449C70.8917 40.9701 70.9214 40.8984 70.9743 40.8455C71.0271 40.7926 71.0988 40.7629 71.1736 40.7629H76.4967C76.5715 40.7629 76.6432 40.7926 76.6961 40.8455C76.749 40.8984 76.7787 40.9701 76.7787 41.0449C76.7787 41.1196 76.749 41.1914 76.6961 41.2442C76.6432 41.2971 76.5715 41.3268 76.4967 41.3268Z" fill="white"/>
<path d="M59.2643 36.2123H58.8414V36.7706H59.2643V36.2123Z" fill="black"/>
<path d="M59.2643 38.451H58.8414V39.0092H59.2643V38.451Z" fill="black"/>
<path d="M59.2643 40.6896H58.8414V41.2479H59.2643V40.6896Z" fill="black"/>
<path d="M59.2643 42.9226H58.8414V43.4809H59.2643V42.9226Z" fill="black"/>
<path d="M59.2643 45.1613H58.8414V45.7195H59.2643V45.1613Z" fill="black"/>
<path d="M59.2643 47.3942H58.8414V47.9525H59.2643V47.3942Z" fill="black"/>
<path d="M59.2643 49.6329H58.8414V50.1911H59.2643V49.6329Z" fill="black"/>
<path d="M59.2643 51.8659H58.8414V52.4241H59.2643V51.8659Z" fill="black"/>
<path d="M59.2643 54.1045H58.8414V54.6628H59.2643V54.1045Z" fill="black"/>
<path d="M59.2643 56.3432H58.8414V56.9014H59.2643V56.3432Z" fill="black"/>
<path d="M59.2643 58.5762H58.8414V59.1344H59.2643V58.5762Z" fill="black"/>
<path d="M59.2643 60.8148H58.8414V61.3731H59.2643V60.8148Z" fill="black"/>
<path d="M59.2643 63.0478H58.8414V63.6061H59.2643V63.0478Z" fill="black"/>
<path d="M59.2643 65.2864H58.8414V65.8447H59.2643V65.2864Z" fill="black"/>
<path d="M59.2643 67.5251H58.8414V68.0833H59.2643V67.5251Z" fill="black"/>
<path d="M59.2643 69.7581H58.8414V70.3163H59.2643V69.7581Z" fill="black"/>
<path d="M65.6419 83.7989H62.9972C62.9224 83.7989 62.8507 83.7692 62.7979 83.7163C62.745 83.6635 62.7153 83.5918 62.7153 83.517C62.7153 83.4422 62.745 83.3705 62.7979 83.3176C62.8507 83.2647 62.9224 83.235 62.9972 83.235H65.6362C65.711 83.235 65.7827 83.2647 65.8356 83.3176C65.8885 83.3705 65.9182 83.4422 65.9182 83.517C65.9182 83.5908 65.8892 83.6617 65.8376 83.7144C65.7859 83.7671 65.7157 83.7974 65.6419 83.7989Z" fill="white"/>
<path d="M72.307 83.7989H67.0347C66.9599 83.7989 66.8882 83.7692 66.8353 83.7163C66.7824 83.6635 66.7527 83.5918 66.7527 83.517C66.7527 83.4422 66.7824 83.3705 66.8353 83.3176C66.8882 83.2647 66.9599 83.235 67.0347 83.235H72.307C72.3818 83.235 72.4535 83.2647 72.5064 83.3176C72.5593 83.3705 72.589 83.4422 72.589 83.517C72.589 83.5918 72.5593 83.6635 72.5064 83.7163C72.4535 83.7692 72.3818 83.7989 72.307 83.7989Z" fill="black"/>
<path d="M73.8916 86.0714H68.6361C68.5613 86.0714 68.4896 86.0417 68.4367 85.9888C68.3839 85.9359 68.3542 85.8642 68.3542 85.7895C68.3542 85.7147 68.3839 85.643 68.4367 85.5901C68.4896 85.5372 68.5613 85.5075 68.6361 85.5075H73.9085C73.9832 85.5075 74.055 85.5372 74.1078 85.5901C74.1607 85.643 74.1904 85.7147 74.1904 85.7895C74.1904 85.8642 74.1607 85.9359 74.1078 85.9888C74.055 86.0417 73.9832 86.0714 73.9085 86.0714H73.8916Z" fill="black"/>
<path d="M66.2621 86.0714H63.6231C63.5484 86.0714 63.4767 86.0417 63.4238 85.9888C63.3709 85.9359 63.3412 85.8642 63.3412 85.7895C63.3412 85.7147 63.3709 85.643 63.4238 85.5901C63.4767 85.5372 63.5484 85.5075 63.6231 85.5075H66.2621C66.3369 85.5075 66.4086 85.5372 66.4615 85.5901C66.5144 85.643 66.5441 85.7147 66.5441 85.7895C66.5441 85.8642 66.5144 85.9359 66.4615 85.9888C66.4086 86.0417 66.3369 86.0714 66.2621 86.0714Z" fill="white"/>
<path d="M66.3806 88.3439H64.2603C64.1856 88.3439 64.1138 88.3142 64.061 88.2613C64.0081 88.2084 63.9784 88.1367 63.9784 88.0619C63.9784 87.9871 64.0081 87.9154 64.061 87.8626C64.1138 87.8097 64.1856 87.78 64.2603 87.78H66.3806C66.4553 87.78 66.527 87.8097 66.5799 87.8626C66.6328 87.9154 66.6625 87.9871 66.6625 88.0619C66.6625 88.1367 66.6328 88.2084 66.5799 88.2613C66.527 88.3142 66.4553 88.3439 66.3806 88.3439Z" fill="white"/>
<path d="M74.8389 88.3439H68.2357C68.161 88.3439 68.0893 88.3142 68.0364 88.2613C67.9835 88.2084 67.9538 88.1367 67.9538 88.0619C67.9538 87.9871 67.9835 87.9154 68.0364 87.8626C68.0893 87.8097 68.161 87.78 68.2357 87.78H74.8389C74.9137 87.78 74.9854 87.8097 75.0383 87.8626C75.0911 87.9154 75.1208 87.9871 75.1208 88.0619C75.1208 88.1367 75.0911 88.2084 75.0383 88.2613C74.9854 88.3142 74.9137 88.3439 74.8389 88.3439Z" fill="black"/>
<path d="M67.5083 90.6389H64.8693C64.7946 90.6389 64.7228 90.6092 64.67 90.5563C64.6171 90.5034 64.5874 90.4317 64.5874 90.3569C64.5874 90.2822 64.6171 90.2105 64.67 90.1576C64.7228 90.1047 64.7946 90.075 64.8693 90.075H67.5083C67.5831 90.075 67.6548 90.1047 67.7077 90.1576C67.7606 90.2105 67.7903 90.2822 67.7903 90.3569C67.7903 90.4317 67.7606 90.5034 67.7077 90.5563C67.6548 90.6092 67.5831 90.6389 67.5083 90.6389Z" fill="white"/>
<path d="M76.2035 90.6389H68.3542C68.2794 90.6389 68.2077 90.6092 68.1548 90.5563C68.1019 90.5034 68.0722 90.4317 68.0722 90.3569C68.0737 90.2826 68.1038 90.2117 68.1564 90.1592C68.209 90.1066 68.2798 90.0764 68.3542 90.075H76.2035C76.2778 90.0764 76.3487 90.1066 76.4013 90.1592C76.4538 90.2117 76.484 90.2826 76.4854 90.3569C76.4854 90.4317 76.4557 90.5034 76.4029 90.5563C76.35 90.6092 76.2783 90.6389 76.2035 90.6389Z" fill="black"/>
<path d="M66.8035 92.8945H64.1588C64.0841 92.8945 64.0124 92.8647 63.9595 92.8119C63.9066 92.759 63.8769 92.6873 63.8769 92.6125C63.8783 92.5382 63.9085 92.4673 63.9611 92.4147C64.0136 92.3622 64.0845 92.332 64.1588 92.3306H66.8035C66.8783 92.3306 66.95 92.3603 67.0028 92.4132C67.0557 92.466 67.0854 92.5377 67.0854 92.6125C67.0854 92.6873 67.0557 92.759 67.0028 92.8119C66.95 92.8647 66.8783 92.8945 66.8035 92.8945Z" fill="white"/>
<path d="M72.0702 92.8945H67.8128C67.7381 92.8945 67.6663 92.8647 67.6135 92.8119C67.5606 92.759 67.5309 92.6873 67.5309 92.6125C67.5323 92.5382 67.5625 92.4673 67.6151 92.4147C67.6676 92.3622 67.7385 92.332 67.8128 92.3306H72.0702C72.145 92.3306 72.2167 92.3603 72.2696 92.4132C72.3224 92.466 72.3521 92.5377 72.3521 92.6125C72.3521 92.6873 72.3224 92.759 72.2696 92.8119C72.2167 92.8647 72.145 92.8945 72.0702 92.8945Z" fill="black"/>
<path d="M76.7787 92.8945H73.7111C73.6363 92.8945 73.5646 92.8647 73.5117 92.8119C73.4589 92.759 73.4292 92.6873 73.4292 92.6125C73.4306 92.5382 73.4608 92.4673 73.5133 92.4147C73.5659 92.3622 73.6368 92.332 73.7111 92.3306H76.7956C76.8704 92.3306 76.9421 92.3603 76.9949 92.4132C77.0478 92.466 77.0775 92.5377 77.0775 92.6125C77.0776 92.651 77.0698 92.6891 77.0546 92.7245C77.0394 92.7598 77.0171 92.7917 76.9891 92.8181C76.9611 92.8445 76.9279 92.8649 76.8918 92.878C76.8556 92.8912 76.8171 92.8968 76.7787 92.8945Z" fill="black"/>
<path d="M75.1772 83.8102C74.681 83.8102 74.1848 83.8102 73.6886 83.8102C73.6133 83.8073 73.5421 83.7749 73.4905 83.7201C73.4388 83.6652 73.4107 83.5923 73.4123 83.517C73.4122 83.48 73.4197 83.4433 73.4343 83.4093C73.449 83.3754 73.4705 83.3447 73.4974 83.3194C73.5244 83.294 73.5562 83.2744 73.591 83.2619C73.6259 83.2493 73.6629 83.244 73.6998 83.2463C74.5344 83.2463 75.3915 83.2463 76.2148 83.2463H76.9366C77.0109 83.2478 77.0818 83.2779 77.1343 83.3305C77.1869 83.3831 77.2171 83.4539 77.2185 83.5283C77.2185 83.603 77.1888 83.6748 77.1359 83.7276C77.083 83.7805 77.0113 83.8102 76.9366 83.8102H75.1772Z" fill="black"/>
<path d="M65.078 72.9271H63.6513C63.5766 72.9271 63.5048 72.8974 63.452 72.8446C63.3991 72.7917 63.3694 72.72 63.3694 72.6452C63.3694 72.5704 63.3991 72.4987 63.452 72.4458C63.5048 72.393 63.5766 72.3633 63.6513 72.3633H65.078C65.1528 72.3633 65.2245 72.393 65.2773 72.4458C65.3302 72.4987 65.3599 72.5704 65.3599 72.6452C65.3599 72.72 65.3302 72.7917 65.2773 72.8446C65.2245 72.8974 65.1528 72.9271 65.078 72.9271Z" fill="white"/>
<path d="M72.8935 72.9271H66.4257C66.3514 72.9257 66.2805 72.8955 66.2279 72.843C66.1753 72.7904 66.1452 72.7195 66.1437 72.6452C66.1437 72.5704 66.1734 72.4987 66.2263 72.4458C66.2792 72.393 66.3509 72.3633 66.4257 72.3633H72.8935C72.9683 72.3633 73.04 72.393 73.0928 72.4458C73.1457 72.4987 73.1754 72.5704 73.1754 72.6452C73.1754 72.72 73.1457 72.7917 73.0928 72.8446C73.04 72.8974 72.9683 72.9271 72.8935 72.9271Z" fill="black"/>
<path d="M76.1753 72.9271H73.5307C73.4563 72.9257 73.3855 72.8955 73.3329 72.843C73.2803 72.7904 73.2502 72.7195 73.2487 72.6452C73.2487 72.5704 73.2784 72.4987 73.3313 72.4458C73.3842 72.393 73.4559 72.3633 73.5307 72.3633H76.1753C76.2501 72.3633 76.3218 72.393 76.3747 72.4458C76.4275 72.4987 76.4572 72.5704 76.4572 72.6452C76.4558 72.7195 76.4256 72.7904 76.3731 72.843C76.3205 72.8955 76.2496 72.9257 76.1753 72.9271Z" fill="black"/>
<path d="M64.4295 75.1996H63.0311C62.9563 75.1996 62.8846 75.1699 62.8317 75.1171C62.7788 75.0642 62.7491 74.9925 62.7491 74.9177C62.7491 74.8429 62.7788 74.7712 62.8317 74.7183C62.8846 74.6655 62.9563 74.6357 63.0311 74.6357H64.4295C64.5043 74.6357 64.576 74.6655 64.6289 74.7183C64.6817 74.7712 64.7114 74.8429 64.7114 74.9177C64.7114 74.9925 64.6817 75.0642 64.6289 75.1171C64.576 75.1699 64.5043 75.1996 64.4295 75.1996Z" fill="white"/>
<path d="M72.183 75.1996H66.0648C65.99 75.1996 65.9183 75.1699 65.8654 75.1171C65.8125 75.0642 65.7828 74.9925 65.7828 74.9177C65.7828 74.8429 65.8125 74.7712 65.8654 74.7183C65.9183 74.6655 65.99 74.6357 66.0648 74.6357H72.183C72.2577 74.6357 72.3295 74.6655 72.3823 74.7183C72.4352 74.7712 72.4649 74.8429 72.4649 74.9177C72.4649 74.9925 72.4352 75.0642 72.3823 75.1171C72.3295 75.1699 72.2577 75.1996 72.183 75.1996Z" fill="black"/>
<path d="M65.6701 77.4721H63.0311C62.9563 77.4721 62.8846 77.4424 62.8317 77.3895C62.7788 77.3366 62.7491 77.2649 62.7491 77.1901C62.7491 77.1154 62.7788 77.0436 62.8317 76.9908C62.8846 76.9379 62.9563 76.9082 63.0311 76.9082H65.6701C65.7448 76.9082 65.8165 76.9379 65.8694 76.9908C65.9223 77.0436 65.952 77.1154 65.952 77.1901C65.952 77.2649 65.9223 77.3366 65.8694 77.3895C65.8165 77.4424 65.7448 77.4721 65.6701 77.4721Z" fill="white"/>
<path d="M68.6925 79.7446H63.4201C63.3454 79.7446 63.2737 79.7149 63.2208 79.662C63.1679 79.6091 63.1382 79.5374 63.1382 79.4626C63.1396 79.3883 63.1698 79.3174 63.2224 79.2649C63.2749 79.2123 63.3458 79.1821 63.4201 79.1807H68.6925C68.7673 79.1807 68.839 79.2104 68.8919 79.2633C68.9447 79.3161 68.9745 79.3878 68.9745 79.4626C68.9745 79.5374 68.9447 79.6091 68.8919 79.662C68.839 79.7149 68.7673 79.7446 68.6925 79.7446Z" fill="white"/>
<path d="M73.7111 79.7446H70.0458C69.9711 79.7446 69.8994 79.7149 69.8465 79.662C69.7936 79.6091 69.7639 79.5374 69.7639 79.4626C69.7639 79.3878 69.7936 79.3161 69.8465 79.2633C69.8994 79.2104 69.9711 79.1807 70.0458 79.1807H73.7111C73.7859 79.1807 73.8576 79.2104 73.9105 79.2633C73.9634 79.3161 73.9931 79.3878 73.9931 79.4626C73.9931 79.5374 73.9634 79.6091 73.9105 79.662C73.8576 79.7149 73.7859 79.7446 73.7111 79.7446Z" fill="black"/>
<path d="M76.8238 79.7446H74.2299C74.1551 79.7446 74.0834 79.7149 74.0305 79.662C73.9777 79.6091 73.9479 79.5374 73.9479 79.4626C73.9479 79.3878 73.9777 79.3161 74.0305 79.2633C74.0834 79.2104 74.1551 79.1807 74.2299 79.1807H76.8238C76.8986 79.1807 76.9703 79.2104 77.0231 79.2633C77.076 79.3161 77.1057 79.3878 77.1057 79.4626C77.1057 79.5374 77.076 79.6091 77.0231 79.662C76.9703 79.7149 76.8986 79.7446 76.8238 79.7446Z" fill="black"/>
<path d="M71.3371 82.017H63.6513C63.5766 82.017 63.5048 81.9873 63.452 81.9345C63.3991 81.8816 63.3694 81.8099 63.3694 81.7351C63.3694 81.6603 63.3991 81.5886 63.452 81.5357C63.5048 81.4829 63.5766 81.4532 63.6513 81.4532H71.3371C71.4115 81.4546 71.4823 81.4848 71.5349 81.5373C71.5875 81.5899 71.6176 81.6608 71.6191 81.7351C71.6191 81.8099 71.5894 81.8816 71.5365 81.9345C71.4836 81.9873 71.4119 82.017 71.3371 82.017Z" fill="white"/>
<path d="M75.7919 82.017H72.3296C72.2548 82.017 72.1831 81.9873 72.1302 81.9345C72.0773 81.8816 72.0476 81.8099 72.0476 81.7351C72.0491 81.6608 72.0793 81.5899 72.1318 81.5373C72.1844 81.4848 72.2553 81.4546 72.3296 81.4532H75.7919C75.8662 81.4546 75.9371 81.4848 75.9896 81.5373C76.0422 81.5899 76.0724 81.6608 76.0738 81.7351C76.0738 81.8099 76.0441 81.8816 75.9912 81.9345C75.9384 81.9873 75.8666 82.017 75.7919 82.017Z" fill="black"/>
<path d="M75.5663 75.1996H72.8935C72.8187 75.1996 72.747 75.1699 72.6941 75.1171C72.6412 75.0642 72.6115 74.9925 72.6115 74.9177C72.6115 74.8429 72.6412 74.7712 72.6941 74.7183C72.747 74.6655 72.8187 74.6357 72.8935 74.6357H75.5663C75.6411 74.6357 75.7128 74.6655 75.7657 74.7183C75.8186 74.7712 75.8483 74.8429 75.8483 74.9177C75.8483 74.9925 75.8186 75.0642 75.7657 75.1171C75.7128 75.1699 75.6411 75.1996 75.5663 75.1996Z" fill="black"/>
<path d="M69.4312 77.4721H67.4632C67.3884 77.4721 67.3167 77.4424 67.2639 77.3895C67.211 77.3366 67.1813 77.2649 67.1813 77.1901C67.1813 77.1154 67.211 77.0436 67.2639 76.9908C67.3167 76.9379 67.3884 76.9082 67.4632 76.9082H69.4312C69.506 76.9082 69.5777 76.9379 69.6306 76.9908C69.6834 77.0436 69.7131 77.1154 69.7131 77.1901C69.7131 77.2649 69.6834 77.3366 69.6306 77.3895C69.5777 77.4424 69.506 77.4721 69.4312 77.4721Z" fill="black"/>
<path d="M74.8389 77.4721H70.1699C70.0951 77.4721 70.0234 77.4424 69.9705 77.3895C69.9176 77.3366 69.8879 77.2649 69.8879 77.1901C69.8879 77.1154 69.9176 77.0436 69.9705 76.9908C70.0234 76.9379 70.0951 76.9082 70.1699 76.9082H74.8389C74.9137 76.9082 74.9854 76.9379 75.0382 76.9908C75.0911 77.0436 75.1208 77.1154 75.1208 77.1901C75.1208 77.2649 75.0911 77.3366 75.0382 77.3895C74.9854 77.4424 74.9137 77.4721 74.8389 77.4721Z" fill="white"/>
<path d="M59.2643 72.3633H58.8414V72.9215H59.2643V72.3633Z" fill="black"/>
<path d="M59.2643 74.5963H58.8414V75.1545H59.2643V74.5963Z" fill="black"/>
<path d="M59.2643 76.8349H58.8414V77.3931H59.2643V76.8349Z" fill="black"/>
<path d="M59.2643 79.0679H58.8414V79.6261H59.2643V79.0679Z" fill="black"/>
<path d="M59.2643 81.3065H58.8414V81.8648H59.2643V81.3065Z" fill="black"/>
<path d="M59.2643 83.5452H58.8414V84.1034H59.2643V83.5452Z" fill="black"/>
<path d="M59.2643 85.7782H58.8414V86.3364H59.2643V85.7782Z" fill="black"/>
<path d="M59.2643 88.0168H58.8414V88.5751H59.2643V88.0168Z" fill="black"/>
<path d="M59.2643 90.2498H58.8414V90.8081H59.2643V90.2498Z" fill="black"/>
<path d="M59.2643 92.4884H58.8414V93.0467H59.2643V92.4884Z" fill="black"/>
<path d="M89.5508 36.5732V35.9417L91.9755 34.4981L92.4491 35.2594L90.718 36.2518L92.4491 37.2443L91.9755 38.0111L89.5508 36.5732Z" fill="#68E1FD"/>
<path d="M92.1785 38.8457H92.7424C92.9736 38.8457 93.075 38.7442 93.075 38.5299V35.1466H94.1521V38.5299C94.1521 39.4491 93.763 39.8212 92.8382 39.8212H92.1954L92.1785 38.8457ZM93.0581 33.6297H94.1352V34.6391H93.0581V33.6297Z" fill="#68E1FD"/>
<path d="M94.575 37.5206C94.575 36.9172 95.0092 36.6014 96.0637 36.4548C96.6839 36.3702 96.8644 36.28 96.8644 36.1221C96.8644 35.9642 96.6501 35.8233 96.3343 35.8233C96.1575 35.8064 95.9806 35.8542 95.8365 35.9579C95.6923 36.0616 95.5907 36.2142 95.5505 36.3871L94.575 36.2067C94.677 35.8448 94.9013 35.5295 95.2098 35.3146C95.5183 35.0996 95.8919 34.9984 96.2667 35.0282C97.2873 35.0282 97.9245 35.5526 97.9245 36.3928V38.451H96.949V38.1183C96.8022 38.2656 96.6256 38.3801 96.4312 38.4539C96.2368 38.5278 96.0288 38.5595 95.8212 38.5468C95.0487 38.5468 94.575 38.1465 94.575 37.5206ZM96.9208 37.1991V36.8665C96.8531 36.968 96.7009 37.03 96.3005 37.1089C95.7986 37.2104 95.6351 37.3006 95.6351 37.4642C95.6351 37.6277 95.7817 37.7179 96.0919 37.7179C96.5204 37.7179 96.9039 37.4811 96.9039 37.1991H96.9208Z" fill="#68E1FD"/>
<path d="M97.8737 35.1466H99.0861L99.9996 37.2217L100.924 35.1466H102.131L100.513 38.451H99.4752L97.8737 35.1466Z" fill="#68E1FD"/>
<path d="M102.097 37.5206C102.097 36.9172 102.531 36.6014 103.586 36.4548C104.201 36.3702 104.381 36.28 104.381 36.1221C104.381 35.9642 104.172 35.8233 103.851 35.8233C103.675 35.8066 103.499 35.8546 103.356 35.9584C103.212 36.0622 103.112 36.2146 103.073 36.3871L102.092 36.2123C102.195 35.8432 102.425 35.5224 102.742 35.3068C103.059 35.0911 103.442 34.9944 103.823 35.0338C104.843 35.0338 105.481 35.5582 105.481 36.3984V38.4566H104.499V38.1239C104.352 38.271 104.176 38.3852 103.981 38.4591C103.787 38.5329 103.579 38.5648 103.372 38.5525C102.588 38.5468 102.097 38.1465 102.097 37.5206ZM104.437 37.1991V36.8665C104.37 36.968 104.212 37.03 103.817 37.1089C103.315 37.2104 103.146 37.3006 103.146 37.4642C103.146 37.6277 103.298 37.7179 103.608 37.7179C104.06 37.7179 104.437 37.4811 104.437 37.1991Z" fill="#68E1FD"/>
<path d="M105.988 37.2612L107.719 36.2687L105.988 35.2763L106.462 34.515L108.887 35.9586V36.5732L106.462 38.0281L105.988 37.2612Z" fill="#68E1FD"/>
<path d="M34.2727 117.339C33.5687 117.342 32.8661 117.276 32.1751 117.142C32.1078 117.128 32.0487 117.088 32.0107 117.031C31.9727 116.974 31.9588 116.904 31.9721 116.837C31.987 116.77 32.0278 116.71 32.0857 116.672C32.1437 116.635 32.2142 116.621 32.2822 116.634C32.316 116.634 36.1505 117.435 38.4229 115.614C39.5507 114.728 40.1146 113.358 40.1146 111.525C40.1531 111.207 40.1084 110.883 39.9849 110.587C39.8614 110.29 39.6632 110.031 39.4097 109.834C38.1805 109.061 35.7388 110.234 35.7163 110.245C35.6566 110.265 35.5916 110.263 35.5334 110.239C35.4753 110.214 35.428 110.17 35.4004 110.113C35.3727 110.057 35.3667 109.992 35.3833 109.931C35.3999 109.87 35.4381 109.818 35.4907 109.783C35.5979 109.732 38.2143 108.475 39.6861 109.399C40.3176 109.794 40.6334 110.527 40.6278 111.554C40.6278 113.538 39.9849 115.05 38.7556 116.036C37.4484 116.958 35.8705 117.417 34.2727 117.339Z" fill="#231F20"/>
<path d="M24.0212 128.436C33.3671 128.436 40.9435 126.306 40.9435 123.677C40.9435 121.049 33.3671 118.918 24.0212 118.918C14.6753 118.918 7.09891 121.049 7.09891 123.677C7.09891 126.306 14.6753 128.436 24.0212 128.436Z" fill="white"/>
<path d="M24.0212 128.718C14.3731 128.718 6.81697 126.502 6.81697 123.677C6.81697 120.852 14.3731 118.636 24.0212 118.636C33.6694 118.636 41.2311 120.846 41.2311 123.677C41.2311 126.508 33.675 128.718 24.0212 128.718ZM24.0212 119.2C14.0686 119.2 7.38086 121.512 7.38086 123.677C7.38086 125.842 14.0686 128.154 24.0212 128.154C33.9739 128.154 40.6672 125.837 40.6672 123.677C40.6672 121.517 33.9795 119.2 24.0212 119.2Z" fill="#231F20"/>
<path d="M24.0212 124.732C27.9857 124.732 31.1995 124.065 31.1995 123.243C31.1995 122.421 27.9857 121.754 24.0212 121.754C20.0567 121.754 16.8429 122.421 16.8429 123.243C16.8429 124.065 20.0567 124.732 24.0212 124.732Z" fill="#D1D3D4"/>
<path d="M37.6222 104.736C37.6222 107.166 36.2971 123.796 24.0212 123.796C11.7454 123.796 10.4259 107.178 10.4259 104.736C10.4259 102.294 16.5159 100.327 24.0212 100.327C31.5266 100.327 37.6222 102.311 37.6222 104.736Z" fill="white"/>
<path d="M24.0212 124.061C18.8109 124.061 14.7847 121.027 12.3826 115.286C11.0399 111.924 10.2901 108.355 10.1665 104.736C10.1665 102.114 16.2565 100.067 24.0212 100.067C31.786 100.067 37.8816 102.114 37.8816 104.736C37.7567 108.351 37.0069 111.916 35.6655 115.275C33.2634 121.027 29.2372 124.061 24.0212 124.061ZM24.0212 100.592C16.7922 100.592 10.6853 102.492 10.6853 104.747C10.6853 104.933 11.2491 123.547 24.0212 123.547C36.7933 123.547 37.3628 104.939 37.3628 104.747C37.3628 102.481 31.2559 100.592 24.0212 100.592Z" fill="#231F20"/>
<path d="M24.0212 109.157C31.5297 109.157 37.6166 107.183 37.6166 104.747C37.6166 102.312 31.5297 100.338 24.0212 100.338C16.5127 100.338 10.4259 102.312 10.4259 104.747C10.4259 107.183 16.5127 109.157 24.0212 109.157Z" fill="#231F20"/>
<path d="M24.0212 109.439C16.2396 109.439 10.1439 107.375 10.1439 104.747C10.1439 102.12 16.2396 100.056 24.0212 100.056C31.8029 100.056 37.9042 102.114 37.9042 104.736C37.9042 107.358 31.8085 109.439 24.0212 109.439ZM24.0212 100.62C16.0591 100.62 10.7078 102.751 10.7078 104.747C10.7078 106.744 16.0591 108.875 24.0212 108.875C31.9833 108.875 37.3403 106.738 37.3403 104.736C37.3403 102.734 31.9833 100.62 24.0212 100.62Z" fill="#231F20"/>
</svg>
