<svg width="19" height="20" viewBox="0 0 19 20" fill="none" xmlns="http://www.w3.org/2000/svg">
<path d="M18.332 8.61328L16.1055 7.12891L16.625 4.49414C16.6992 4.01172 16.5508 3.49219 16.2168 3.12109C15.8457 2.78711 15.3262 2.63867 14.8438 2.71289L12.209 3.23242L10.7246 1.00586C10.168 0.189453 8.79492 0.189453 8.23828 1.00586L6.75391 3.23242L4.11914 2.71289C3.63672 2.63867 3.11719 2.78711 2.7832 3.1582C2.41211 3.49219 2.26367 4.01172 2.33789 4.49414L2.85742 7.12891L0.630859 8.61328C0.222656 8.91016 0 9.35547 0 9.875C0 10.3574 0.222656 10.8398 0.630859 11.0996L2.85742 12.6211L2.33789 15.2559C2.26367 15.7383 2.41211 16.2578 2.7832 16.5918C3.11719 16.9629 3.59961 17.1113 4.11914 17L6.75391 16.5176L8.23828 18.7441C8.53516 19.1523 8.98047 19.375 9.5 19.375C9.98242 19.375 10.4648 19.1523 10.7246 18.7441L12.209 16.5176L14.8438 17C15.3633 17.1113 15.8457 16.9629 16.2168 16.5918C16.5508 16.2578 16.6992 15.7383 16.625 15.2559L16.1055 12.6211L18.332 11.1367C18.7402 10.8398 19 10.3574 19 9.875C19 9.35547 18.7402 8.91016 18.332 8.61328ZM14.1387 11.8047L14.7695 15.1816L11.3926 14.5508L9.5 17.3711L7.57031 14.5137L4.19336 15.1816L4.82422 11.8047L2.00391 9.875L4.82422 7.94531L4.19336 4.56836L7.57031 5.19922L9.5 2.3418L11.3926 5.19922L14.7695 4.56836L14.1387 7.94531L16.9961 9.875L14.1387 11.8047ZM9.5 6.01562C7.34766 6.01562 5.64062 7.75977 5.64062 9.875C5.64062 12.0273 7.34766 13.7344 9.5 13.7344C11.6152 13.7344 13.3594 12.0273 13.3594 9.875C13.3594 7.75977 11.6152 6.01562 9.5 6.01562ZM9.5 11.9531C8.34961 11.9531 7.42188 11.0254 7.42188 9.875C7.42188 8.76172 8.34961 7.79688 9.5 7.79688C10.6133 7.79688 11.5781 8.76172 11.5781 9.875C11.5781 11.0254 10.6133 11.9531 9.5 11.9531Z" fill="#F3F3F3"/>
</svg>
