<svg width="269" height="202" viewBox="0 0 269 202" fill="none" xmlns="http://www.w3.org/2000/svg">
<path d="M114.066 174.831C147.019 174.831 173.733 172.65 173.733 169.96C173.733 167.27 147.019 165.089 114.066 165.089C81.1135 165.089 54.4 167.27 54.4 169.96C54.4 172.65 81.1135 174.831 114.066 174.831Z" fill="#E6E7E8"/>
<path d="M213.613 124.23H171.187V158.797H213.613V124.23Z" fill="white"/>
<path d="M213.613 159.139H171.187C171.098 159.139 171.013 159.103 170.95 159.041C170.887 158.978 170.852 158.893 170.852 158.804V124.23C170.852 124.141 170.887 124.056 170.95 123.993C171.013 123.93 171.098 123.895 171.187 123.895H213.613C213.701 123.897 213.786 123.933 213.848 123.995C213.911 124.057 213.946 124.142 213.948 124.23V158.804C213.946 158.892 213.911 158.976 213.848 159.039C213.786 159.101 213.701 159.137 213.613 159.139ZM171.522 158.469H213.278V124.565H171.528L171.522 158.469Z" fill="#D1D3D4"/>
<path d="M213.613 129.007H171.187C171.098 129.007 171.013 128.972 170.95 128.909C170.887 128.846 170.852 128.761 170.852 128.672C170.852 128.584 170.887 128.498 170.95 128.435C171.013 128.373 171.098 128.337 171.187 128.337H213.613C213.702 128.337 213.787 128.373 213.85 128.435C213.913 128.498 213.948 128.584 213.948 128.672C213.946 128.761 213.911 128.845 213.848 128.907C213.786 128.97 213.701 129.006 213.613 129.007Z" fill="#D1D3D4"/>
<path d="M96.7125 59.6456C95.7975 59.7071 94.8845 59.499 94.0865 59.0471C93.2885 58.5951 92.6405 57.9191 92.2227 57.1027C91.8049 56.2864 91.6356 55.3654 91.7357 54.4538C91.8359 53.5422 92.201 52.6799 92.7861 51.9737C90.2266 50.7944 88.8731 47.7659 89.0607 44.9585C89.2483 42.151 90.7291 39.5982 92.5784 37.4407C94.0994 35.6785 96.009 34.0905 98.2938 33.655C98.7263 33.6119 99.1479 33.494 99.5401 33.3066C99.8486 33.0896 100.116 32.8196 100.331 32.5092C101.999 30.3785 104.056 28.4221 106.629 27.5644C109.202 26.7068 112.351 27.1959 114.073 29.2931C114.934 28.5458 116.001 28.0775 117.134 27.9502C118.267 27.8228 119.411 28.0424 120.417 28.5799C121.422 29.1173 122.24 29.9474 122.763 30.9601C123.286 31.9728 123.49 33.1205 123.346 34.2513C125.159 34.519 126.859 35.2948 128.249 36.489C129.639 37.6832 130.662 39.2468 131.199 40.9986C132.157 44.5229 130.529 48.6637 127.279 50.3321C126.904 50.5264 126.455 50.781 126.469 51.1965C126.506 51.4472 126.618 51.6808 126.79 51.8665C127.836 53.3607 127.313 55.5249 126.12 56.8783C124.928 58.2318 123.145 58.9487 121.43 59.6322C121.812 60.0148 122.066 60.5057 122.158 61.0381C122.251 61.5705 122.176 62.1184 121.946 62.6071C121.449 63.5855 120.675 64.3963 119.721 64.9388C115.996 67.3442 111.386 66.5938 107.212 66.6809C103.359 66.7613 99.5334 64.3023 96.9805 61.515C96.4847 60.9856 96.0894 60.0208 96.7125 59.6456Z" fill="white"/>
<path d="M111.828 67.0628C111.158 67.0628 110.488 67.0628 109.872 67.0628C109.001 67.0628 108.09 67.0226 107.232 67.0628C103.734 67.1231 99.8617 65.16 96.7393 61.7897C96.5196 61.5693 96.3469 61.3066 96.2317 61.0176C96.1166 60.7285 96.0613 60.419 96.0693 60.1079C96.0655 60.0835 96.0655 60.0586 96.0693 60.0342C95.1672 59.9909 94.2937 59.7039 93.5417 59.2039C92.7896 58.7039 92.187 58.0094 91.7981 57.1944C91.4091 56.3793 91.2482 55.4741 91.3325 54.5749C91.4168 53.6757 91.7432 52.8162 92.2769 52.0876C89.9653 50.8146 88.5247 47.9401 88.7257 44.9384C88.8932 42.3721 90.106 39.7791 92.3238 37.2196C94.2535 34.9951 96.1832 33.722 98.2335 33.3267L98.4613 33.2865C98.7837 33.2738 99.0976 33.18 99.374 33.0137C99.6504 32.8473 99.8804 32.6139 100.043 32.3351C102.146 29.6549 104.257 28.0066 106.522 27.2495C109.316 26.3182 112.378 26.9681 114.113 28.8241C115.027 28.119 116.125 27.6936 117.275 27.5995C118.425 27.5054 119.577 27.7465 120.593 28.2938C121.609 28.841 122.444 29.6709 122.998 30.683C123.552 31.6951 123.801 32.8461 123.715 33.9967C125.525 34.3239 127.211 35.1417 128.589 36.361C129.966 37.5802 130.983 39.1543 131.527 40.9115C132.546 44.657 130.743 48.9519 127.434 50.6336C127.099 50.8012 126.797 50.9888 126.804 51.1898C126.837 51.3288 126.904 51.4576 126.998 51.565L127.058 51.6521C128.251 53.3406 127.574 55.7058 126.335 57.0727C125.109 58.2761 123.63 59.1916 122.006 59.7528C122.3 60.1918 122.477 60.6981 122.521 61.2242C122.566 61.7503 122.476 62.2792 122.261 62.7612C121.748 63.7942 120.938 64.6505 119.936 65.2203C117.45 66.8283 114.636 67.0628 111.828 67.0628ZM107.976 66.3392C108.612 66.3392 109.256 66.3392 109.885 66.3392C113.236 66.4062 116.686 66.4799 119.547 64.6306C120.449 64.1284 121.179 63.3676 121.644 62.4463C121.852 62.0195 121.922 61.5385 121.844 61.0702C121.766 60.6019 121.544 60.1695 121.209 59.8332C121.165 59.7959 121.132 59.748 121.112 59.694C121.092 59.64 121.086 59.5818 121.095 59.525C121.104 59.4673 121.128 59.413 121.165 59.3672C121.201 59.3215 121.249 59.2858 121.303 59.2637C122.871 58.6338 124.653 57.9236 125.839 56.5835C126.904 55.411 127.501 53.4009 126.509 51.9938L126.449 51.9201C126.266 51.7095 126.153 51.4472 126.127 51.1697C126.127 50.4996 126.763 50.178 127.119 49.9971C130.161 48.4292 131.809 44.5028 130.871 41.0455C130.341 39.3652 129.348 37.8681 128.007 36.7258C126.665 35.5835 125.029 34.842 123.286 34.5864C123.199 34.5731 123.121 34.5264 123.069 34.4562C123.016 34.3861 122.993 34.2981 123.005 34.2111C123.136 33.1497 122.944 32.0733 122.453 31.1229C121.962 30.1726 121.196 29.3928 120.254 28.8857C119.312 28.3786 118.239 28.168 117.176 28.2813C116.112 28.3947 115.108 28.8267 114.294 29.5209C114.261 29.5505 114.221 29.5729 114.179 29.5868C114.136 29.6006 114.091 29.6056 114.046 29.6013C114.002 29.598 113.959 29.5856 113.92 29.5648C113.881 29.5441 113.846 29.5154 113.818 29.4807C112.311 27.6448 109.396 26.9748 106.743 27.8659C104.606 28.5762 102.595 30.1574 100.599 32.6969C100.362 33.0406 100.065 33.3381 99.721 33.5746C99.3672 33.7629 98.9805 33.8812 98.5819 33.923L98.3675 33.9632C96.4713 34.3318 94.6622 35.5311 92.833 37.635C90.7157 40.0806 89.5633 42.5464 89.4025 44.9585C89.2082 47.853 90.6554 50.6001 92.9335 51.6588C92.9798 51.6803 93.0207 51.712 93.0532 51.7514C93.0857 51.7908 93.1089 51.837 93.1211 51.8866C93.1319 51.9371 93.1308 51.9893 93.118 52.0393C93.1052 52.0893 93.0811 52.1356 93.0474 52.1747C92.4949 52.8277 92.1479 53.6294 92.0501 54.4792C91.9522 55.3289 92.1079 56.1886 92.4976 56.95C92.8873 57.7114 93.4935 58.3406 94.2399 58.7582C94.9863 59.1759 95.8396 59.3634 96.6924 59.2972C96.7687 59.2894 96.8454 59.3086 96.909 59.3514C96.9727 59.3943 97.0193 59.458 97.0408 59.5317C97.0636 59.6036 97.0614 59.6811 97.0347 59.7516C97.0079 59.8221 96.9582 59.8816 96.8934 59.9203C96.852 59.9432 96.8169 59.976 96.7912 60.0158C96.7655 60.0555 96.75 60.1009 96.746 60.1481C96.7574 60.5757 96.9353 60.982 97.2419 61.2805C100.203 64.51 103.942 66.3995 107.219 66.3325L107.976 66.3392Z" fill="#231F20"/>
<path d="M144.566 157.772C146.101 157.772 157.538 159.011 162.892 161.671C168.245 164.331 169.404 164.539 168.319 168.131C167.233 171.722 157.806 172.606 150.63 171.253C146.008 170.303 141.55 168.682 137.397 166.442L144.566 157.772Z" fill="white"/>
<path d="M157.397 172.211C155.108 172.202 152.824 171.978 150.576 171.541C145.923 170.584 141.434 168.954 137.249 166.703C137.211 166.68 137.177 166.649 137.15 166.612C137.124 166.575 137.105 166.533 137.095 166.489C137.088 166.445 137.09 166.4 137.101 166.358C137.113 166.315 137.134 166.275 137.162 166.241L144.332 157.571C144.358 157.535 144.392 157.506 144.432 157.487C144.472 157.467 144.515 157.457 144.56 157.457H144.627C146.496 157.457 157.665 158.73 163.026 161.39L164.232 161.986C168.527 164.09 169.686 164.667 168.614 168.218C167.937 170.469 163.528 172.211 157.397 172.211ZM137.873 166.348C141.907 168.478 146.222 170.028 150.69 170.951C157.893 172.291 167.032 171.34 168.031 168.043C168.949 164.988 168.285 164.66 163.964 162.543L162.758 161.946C157.645 159.407 146.71 158.114 144.707 158.073L137.873 166.348Z" fill="#231F20"/>
<path d="M146.101 157.738C147.112 157.986 147.993 158.607 148.566 159.477C149.139 160.347 149.361 161.401 149.189 162.429C148.687 166.241 140.626 166.402 140.164 166.449C139.702 166.496 146.101 157.738 146.101 157.738Z" fill="white"/>
<path d="M140.164 166.663C140.104 166.661 140.046 166.644 139.994 166.614C139.943 166.584 139.9 166.541 139.869 166.489C139.769 166.288 139.608 165.98 145.853 157.531C145.889 157.481 145.938 157.444 145.996 157.424C146.053 157.404 146.115 157.401 146.174 157.417C146.208 157.417 150.027 158.375 149.525 162.415C149.015 166.295 141.672 166.636 140.204 166.663H140.164ZM146.194 158.067C144.231 160.747 141.31 164.767 140.58 166.04C142.415 165.953 148.452 165.437 148.861 162.335C149.019 161.427 148.837 160.493 148.35 159.711C147.863 158.929 147.105 158.353 146.221 158.093L146.194 158.067Z" fill="#231F20"/>
<path d="M86.3605 166.469C86.126 166.59 83.935 169.437 74.3803 170.576C64.8257 171.715 61.2812 173.772 59.1505 168.754C57.0198 163.735 58.4804 160.492 63.1707 159.058C67.8609 157.624 80.8528 156.439 83.399 158.837C85.9451 161.236 86.3605 166.469 86.3605 166.469Z" fill="white"/>
<path d="M63.8675 172.278C61.5023 172.278 59.9813 171.487 58.8691 168.874C57.7568 166.261 57.5893 164.017 58.4 162.281C59.1505 160.673 60.7318 159.487 63.0903 158.77C67.4991 157.43 80.893 156.05 83.6134 158.616C86.2198 161.068 86.6352 166.228 86.6553 166.442C86.6584 166.499 86.6464 166.555 86.6205 166.606C86.5946 166.657 86.5558 166.7 86.5079 166.73L86.4141 166.811C83.6603 169.317 78.3737 170.409 74.4071 170.878C72.3501 171.126 70.5812 171.414 69.0469 171.668C67.3378 171.999 65.6066 172.203 63.8675 172.278ZM76.2363 157.765C71.6466 157.765 66.0853 158.496 63.2846 159.353C61.0869 160.023 59.6262 161.095 58.9562 162.543C58.2191 164.11 58.3799 166.161 59.4319 168.633C61.0065 172.352 63.3315 171.983 68.933 171.065C70.5008 170.811 72.2831 170.523 74.3468 170.275C78.2196 169.812 83.3856 168.754 86.0188 166.355C85.925 165.477 85.3488 161.142 83.1846 159.078C82.2197 158.127 79.4659 157.765 76.2363 157.765Z" fill="#231F20"/>
<path d="M89.4092 164.419C89.4092 164.419 85.074 168.037 82.1862 167.608C79.2984 167.179 75.305 165.598 76.913 162.482C78.5211 159.367 88.8731 157.49 88.8731 157.49L89.4092 164.419Z" fill="white"/>
<path d="M82.682 167.95C82.5004 167.95 82.319 167.936 82.1393 167.909C79.9751 167.588 77.362 166.663 76.5244 165.022C76.3177 164.601 76.2197 164.135 76.2396 163.667C76.2595 163.199 76.3966 162.743 76.6383 162.341C78.3 159.112 88.3907 157.269 88.8195 157.189C88.8617 157.182 88.905 157.183 88.9465 157.194C88.988 157.204 89.0269 157.223 89.0607 157.249C89.0947 157.276 89.1229 157.31 89.1436 157.348C89.1643 157.386 89.1772 157.427 89.1814 157.47L89.7174 164.392C89.7211 164.441 89.7133 164.49 89.6947 164.535C89.6761 164.581 89.6472 164.621 89.6102 164.653C89.436 164.794 85.6235 167.95 82.682 167.95ZM88.5984 157.859C86.8228 158.207 78.5479 159.97 77.2079 162.623C77.0102 162.938 76.8955 163.298 76.8744 163.669C76.8533 164.041 76.9265 164.411 77.0873 164.747C77.8243 166.174 80.2364 167.005 82.2532 167.306C84.7122 167.675 88.4041 164.847 89.1144 164.285L88.5984 157.859Z" fill="#231F20"/>
<path d="M141.484 134.026C141.484 134.026 136.914 151.849 120.237 155.253C103.56 158.656 94.9302 157.758 89.0205 146.502C83.1109 135.245 87.0104 128.357 87.0104 128.357L139.642 127.312L141.484 134.026Z" fill="#231F20"/>
<path d="M106.482 157.336C98.4412 157.336 92.8598 154.536 88.719 146.656C82.7959 135.366 86.5682 128.478 86.7089 128.19C86.7382 128.139 86.7801 128.097 86.8307 128.068C86.8812 128.038 86.9386 128.023 86.997 128.022L139.628 126.977C139.704 126.973 139.779 126.996 139.84 127.041C139.901 127.086 139.945 127.151 139.963 127.225L141.786 133.925C141.799 133.983 141.799 134.042 141.786 134.1C141.739 134.281 136.975 152.19 120.278 155.574C115.004 156.666 110.441 157.336 106.482 157.336ZM87.2316 128.686C86.7089 129.791 84.069 136.344 89.3154 146.348C95.3121 157.738 104.056 158.221 120.137 154.924C135.836 151.721 140.734 135.339 141.102 134.026L139.367 127.654L87.2316 128.686Z" fill="#231F20"/>
<path d="M83.0841 134.187C83.0841 134.187 74.4607 106.313 75.5931 88.8456C76.7254 71.3779 83.2181 70.7547 92.0759 69.7698C96.009 69.3276 116.961 66.2253 124.807 75.4584C132.653 84.6914 146.462 127.935 146.462 127.935L83.0841 134.187Z" fill="#68E1FD"/>
<path d="M114.207 69.8167L112.867 79.1435C112.867 79.1435 109.932 83.9611 104.056 81.5221C98.1799 79.0832 98.066 74.5873 98.066 74.5873L100.853 57.3541C100.853 57.3541 107.051 51.7928 109.658 41.1661C109.658 41.1661 114.85 50.2249 122.388 52.2618C122.388 52.2618 121.886 59.7863 120.539 64.4497C119.199 68.959 114.301 69.7631 114.207 69.8167Z" fill="white"/>
<path d="M107.205 82.5406C106.066 82.5268 104.94 82.2854 103.895 81.8304C97.865 79.3378 97.7042 74.7883 97.6975 74.594L100.505 57.3005C100.519 57.2238 100.556 57.1534 100.612 57.0994C100.672 57.0458 106.763 51.4846 109.323 41.0857C109.341 41.0218 109.377 40.9645 109.427 40.9206C109.477 40.8767 109.538 40.8479 109.604 40.8378C109.669 40.8285 109.736 40.8388 109.796 40.8674C109.855 40.8961 109.905 40.9417 109.939 40.9986C109.993 41.0924 115.159 49.9636 122.455 51.9335C122.531 51.9536 122.597 51.9994 122.642 52.063C122.687 52.1266 122.709 52.204 122.703 52.2819C122.703 52.3556 122.18 59.9002 120.84 64.5435C119.735 68.3694 116.15 69.6827 114.515 70.0847L113.175 79.1904C113.169 79.2348 113.155 79.2778 113.135 79.3177C112.475 80.2883 111.592 81.0872 110.561 81.6478C109.529 82.2084 108.379 82.5145 107.205 82.5406ZM101.175 57.5149L98.401 74.6409C98.401 74.7481 98.602 78.8889 104.19 81.2139C109.41 83.3781 112.23 79.5254 112.552 79.0229L113.892 69.7698C113.898 69.719 113.917 69.6705 113.946 69.6284C113.975 69.5864 114.014 69.5521 114.06 69.5286C114.121 69.4927 114.19 69.4699 114.261 69.4616C115.701 69.1198 119.172 67.9339 120.204 64.3559C121.383 60.2754 121.919 53.8967 122.02 52.5097C115.721 50.6604 111.152 44.1678 109.785 42.017C107.239 51.4511 101.899 56.7778 101.175 57.5149Z" fill="#231F20"/>
<path d="M104.465 57.6154C104.39 56.7437 104.032 55.9203 103.446 55.2703C102.877 54.6863 102.21 54.2056 101.476 53.8498C101.096 53.6144 100.668 53.4657 100.223 53.4143C99.909 53.4174 99.5977 53.4787 99.3056 53.5952C98.5921 53.8227 97.9837 54.2981 97.5903 54.9352C97.3313 55.4758 97.2093 56.0718 97.2351 56.6706C97.2087 57.3187 97.2672 57.9675 97.4094 58.6003C97.5667 59.2322 97.8487 59.8264 98.2387 60.3478C98.6287 60.8693 99.1189 61.3077 99.6806 61.6372C100.242 61.9667 100.864 62.1808 101.51 62.2668C102.155 62.3528 102.811 62.309 103.44 62.1381" fill="white"/>
<path d="M102.167 62.6138C101.001 62.6149 99.8677 62.2265 98.9476 61.5103C98.0274 60.7942 97.3729 59.7912 97.0877 58.6606C96.9324 58.0025 96.8692 57.326 96.9001 56.6505C96.8765 55.9979 97.0122 55.3494 97.2954 54.761C97.7223 54.0606 98.3852 53.5355 99.1648 53.2803C99.4983 53.1507 99.8524 53.0826 100.21 53.0793C100.706 53.1315 101.185 53.2941 101.61 53.555C102.376 53.9289 103.072 54.4321 103.667 55.0425C104.303 55.7484 104.691 56.6422 104.773 57.5886C104.779 57.6771 104.75 57.7643 104.692 57.8318C104.635 57.8994 104.553 57.9419 104.465 57.9504C104.377 57.9544 104.29 57.9248 104.223 57.8676C104.156 57.8104 104.113 57.7298 104.103 57.6422C104.037 56.8449 103.715 56.0904 103.185 55.4914C102.64 54.9383 102.003 54.4847 101.302 54.1513C100.968 53.9371 100.59 53.7998 100.197 53.7493C99.9252 53.7515 99.6568 53.8061 99.406 53.9101C98.7732 54.1055 98.2282 54.5154 97.865 55.0692C97.6374 55.5642 97.5317 56.1064 97.5568 56.6505C97.5246 57.2696 97.581 57.89 97.7243 58.4931C97.8717 59.0796 98.1342 59.631 98.4966 60.1152C98.859 60.5994 99.314 61.0067 99.8353 61.3134C100.356 61.6201 100.933 61.8202 101.533 61.902C102.132 61.9837 102.741 61.9456 103.326 61.7897C103.411 61.7671 103.502 61.779 103.578 61.8229C103.655 61.8668 103.711 61.9392 103.734 62.0242C103.746 62.0669 103.748 62.1113 103.742 62.155C103.736 62.1986 103.721 62.2407 103.699 62.2786C103.676 62.3166 103.647 62.3498 103.611 62.3762C103.576 62.4027 103.536 62.422 103.493 62.4329C103.061 62.5523 102.615 62.6131 102.167 62.6138Z" fill="#231F20"/>
<path d="M112.887 54.9554C112.887 54.9554 115.52 60.1481 114.656 60.8918C113.792 61.6356 111.715 60.8181 111.715 60.8181" fill="white"/>
<path d="M113.577 61.5418C112.889 61.5205 112.209 61.3823 111.567 61.133C111.526 61.1168 111.489 61.0926 111.457 61.062C111.426 61.0313 111.4 60.9946 111.383 60.9542C111.366 60.9137 111.356 60.8703 111.356 60.8262C111.355 60.7822 111.363 60.7384 111.38 60.6975C111.414 60.616 111.478 60.5509 111.559 60.5159C111.641 60.4809 111.732 60.4788 111.815 60.5099C112.304 60.6975 113.825 61.1331 114.408 60.6372C114.763 60.3424 113.879 57.7025 112.565 55.1028C112.545 55.0638 112.532 55.021 112.529 54.9771C112.525 54.9331 112.53 54.8889 112.544 54.847C112.558 54.8051 112.58 54.7664 112.609 54.7332C112.638 54.7 112.673 54.673 112.713 54.6538C112.792 54.6159 112.883 54.61 112.967 54.6374C113.051 54.6649 113.12 54.7236 113.162 54.8012C113.986 56.4361 115.808 60.3223 114.85 61.1464C114.483 61.4192 114.034 61.5586 113.577 61.5418Z" fill="#231F20"/>
<path d="M109.616 53.7817C109.667 53.162 109.349 52.6305 108.906 52.5944C108.464 52.5583 108.064 53.0314 108.013 53.651C107.963 54.2706 108.281 54.8022 108.723 54.8383C109.166 54.8743 109.566 54.4013 109.616 53.7817Z" fill="#231F20"/>
<path d="M117.917 54.9286C117.963 54.3087 117.642 53.7793 117.199 53.7464C116.756 53.7134 116.36 54.1892 116.313 54.8092C116.267 55.4291 116.589 55.9585 117.032 55.9914C117.474 56.0244 117.871 55.5486 117.917 54.9286Z" fill="#231F20"/>
<path d="M112.204 65.696C111.179 65.714 110.165 65.4841 109.249 65.026C107.647 64.1884 106.622 62.587 106.2 60.2687C106.192 60.2252 106.194 60.1805 106.203 60.1373C106.213 60.0941 106.231 60.0533 106.257 60.0172C106.282 59.981 106.315 59.9503 106.352 59.9268C106.389 59.9033 106.431 59.8874 106.475 59.8801C106.562 59.8662 106.651 59.8863 106.723 59.9362C106.795 59.9861 106.846 60.062 106.864 60.1481C107.239 62.252 108.15 63.6926 109.544 64.4296C112.358 65.9037 116.318 64.1214 116.358 64.1013C116.439 64.0651 116.531 64.0623 116.614 64.0937C116.696 64.1251 116.764 64.1881 116.8 64.2688C116.819 64.3087 116.83 64.352 116.831 64.3961C116.833 64.4402 116.826 64.4843 116.81 64.5255C116.795 64.5668 116.771 64.6045 116.74 64.6364C116.71 64.6683 116.673 64.6937 116.633 64.711C115.233 65.3207 113.73 65.6551 112.204 65.696Z" fill="#231F20"/>
<path d="M114.207 69.8167C114.207 69.8167 108.177 70.3125 105.068 67.8602C105.068 67.8602 107.714 76.2356 113.276 76.2088L114.207 69.8167Z" fill="#231F20"/>
<path d="M113.236 76.5438C107.513 76.5438 104.847 68.3091 104.733 67.9607C104.713 67.892 104.715 67.8188 104.739 67.7515C104.764 67.6842 104.808 67.6261 104.867 67.5855C104.923 67.5414 104.993 67.5175 105.064 67.5175C105.136 67.5175 105.206 67.5414 105.262 67.5855C108.257 69.9239 114.107 69.475 114.167 69.4682C114.217 69.4647 114.267 69.4724 114.313 69.4908C114.36 69.5091 114.402 69.5377 114.436 69.5743C114.47 69.6109 114.495 69.6547 114.51 69.7025C114.525 69.7502 114.529 69.8007 114.522 69.8502L113.591 76.249C113.576 76.3324 113.533 76.4079 113.468 76.4619C113.402 76.516 113.32 76.545 113.236 76.5438ZM105.731 68.7044C106.582 70.8016 108.994 75.6593 112.974 75.8671L113.798 70.1785C112.512 70.2321 108.545 70.2723 105.745 68.7044H105.731Z" fill="#231F20"/>
<path d="M85.4359 71.3243C73.0604 69.7832 61.442 122.32 68.1959 127.312C78.7288 135.105 110.877 124.465 110.877 124.465L107.661 110.602C107.661 110.602 84.4576 111.707 84.0355 106.943C83.6134 102.179 97.0006 79.8471 95.1245 76.5907C93.2484 73.3344 85.4359 71.3243 85.4359 71.3243Z" fill="#68E1FD"/>
<path d="M128.646 110.99C128.572 110.992 128.5 110.967 128.445 110.918C128.389 110.87 128.353 110.802 128.345 110.729C126.75 99.5259 123.253 80.765 122.12 79.6662C122.065 79.6085 122.034 79.5318 122.035 79.4521C122.035 79.3723 122.066 79.2958 122.122 79.2386C122.177 79.1813 122.253 79.1478 122.332 79.1451C122.412 79.1424 122.49 79.1706 122.549 79.2239C124.003 80.6377 127.742 102.159 128.948 110.642C128.959 110.723 128.938 110.805 128.889 110.87C128.84 110.935 128.767 110.979 128.686 110.99H128.646Z" fill="#231F20"/>
<path d="M116.807 137.497L95.4462 131.513L134.677 124.136L155.91 133.034L116.807 137.497Z" fill="white"/>
<path d="M116.807 137.852C116.778 137.858 116.748 137.858 116.72 137.852L95.3591 131.821C95.2702 131.821 95.185 131.786 95.1222 131.723C95.0593 131.661 95.024 131.575 95.024 131.486C95.024 131.398 95.0593 131.312 95.1222 131.25C95.185 131.187 95.2702 131.151 95.3591 131.151L134.589 123.781C134.65 123.761 134.716 123.761 134.777 123.781L156.01 132.679C156.078 132.708 156.135 132.758 156.171 132.823C156.208 132.887 156.222 132.961 156.211 133.034C156.201 133.108 156.167 133.177 156.114 133.229C156.06 133.281 155.991 133.314 155.917 133.322L116.847 137.852H116.807ZM96.9202 131.6L116.834 137.182L154.597 132.873L134.636 124.511L96.9202 131.6Z" fill="#231F20"/>
<path d="M104.203 115.392C108.894 115.908 113.242 116.243 117.604 118.072C120.097 119.119 122.451 120.47 124.613 122.093C125.714 122.874 126.744 123.753 127.688 124.719C128.439 125.537 128.197 126.334 126.938 125.939C125.473 125.48 124.086 124.802 122.824 123.929C125.842 126.391 128.517 129.246 130.777 132.418C131.032 132.78 131.28 133.296 130.978 133.617C130.676 133.939 130.006 133.617 129.638 133.282L123.011 126.997C124.766 128.511 126.258 130.304 127.427 132.304C127.594 132.592 127.755 132.974 127.581 133.235C127.286 133.724 126.536 133.356 126.134 132.947C124.149 130.943 122.344 128.768 120.74 126.448L124.318 131.808C124.284 131.907 124.231 131.998 124.162 132.076C124.092 132.155 124.008 132.218 123.914 132.264C123.82 132.309 123.718 132.336 123.613 132.341C123.509 132.347 123.405 132.332 123.306 132.297C122.912 132.135 122.571 131.865 122.321 131.52L117.986 126.542L120.546 130.066C120.948 130.615 121.35 131.406 120.887 131.922C120.425 132.438 119.38 131.922 118.79 131.399C116.418 129.235 113.814 127.341 111.024 125.751C110.013 125.155 109.148 124.344 108.029 124.002C106.421 123.506 104.411 123.573 102.736 123.386" fill="white"/>
<path d="M130.656 134.073C130.209 134.022 129.792 133.819 129.477 133.497L127.333 131.486C127.474 131.708 127.614 131.935 127.742 132.157C127.877 132.331 127.963 132.539 127.99 132.758C128.018 132.978 127.985 133.2 127.896 133.403C127.836 133.506 127.752 133.594 127.652 133.659C127.552 133.724 127.438 133.765 127.32 133.778C127.066 133.775 126.816 133.719 126.586 133.614C126.355 133.509 126.148 133.357 125.98 133.168C125.537 132.726 125.109 132.277 124.686 131.828C124.689 131.853 124.689 131.877 124.686 131.902C124.661 132.026 124.61 132.143 124.536 132.246C124.462 132.349 124.367 132.435 124.258 132.498C124.113 132.585 123.952 132.641 123.785 132.663C123.618 132.684 123.448 132.672 123.286 132.626C122.835 132.449 122.445 132.146 122.16 131.754L121.37 130.85C121.468 131.068 121.503 131.31 121.47 131.547C121.437 131.784 121.337 132.007 121.182 132.19C121.086 132.298 120.968 132.385 120.837 132.446C120.705 132.507 120.563 132.541 120.418 132.545C119.719 132.469 119.071 132.14 118.596 131.62C116.247 129.468 113.662 127.589 110.89 126.019C110.549 125.818 110.22 125.59 109.899 125.349C109.313 124.892 108.66 124.531 107.962 124.277C106.794 123.981 105.596 123.819 104.391 123.795C103.815 123.761 103.252 123.728 102.723 123.674C102.642 123.664 102.569 123.622 102.518 123.558C102.468 123.494 102.445 123.413 102.455 123.332C102.459 123.292 102.471 123.254 102.49 123.219C102.509 123.184 102.535 123.153 102.566 123.128C102.597 123.103 102.633 123.085 102.672 123.074C102.71 123.063 102.75 123.06 102.79 123.064C103.312 123.118 103.862 123.151 104.425 123.185C105.679 123.209 106.927 123.377 108.143 123.687C108.899 123.963 109.608 124.352 110.247 124.84C110.555 125.061 110.87 125.275 111.199 125.47C114.009 127.066 116.631 128.972 119.018 131.151C119.38 131.52 119.849 131.766 120.358 131.855C120.42 131.853 120.481 131.838 120.538 131.811C120.594 131.785 120.645 131.747 120.686 131.701C121.048 131.306 120.552 130.535 120.324 130.22L117.765 126.702C117.741 126.672 117.723 126.637 117.713 126.599C117.703 126.561 117.7 126.522 117.705 126.484C117.71 126.445 117.723 126.408 117.742 126.374C117.762 126.34 117.788 126.311 117.819 126.287C117.875 126.232 117.951 126.201 118.03 126.201C118.109 126.201 118.184 126.232 118.241 126.287L122.582 131.265C122.794 131.562 123.084 131.794 123.42 131.935C123.499 131.958 123.582 131.964 123.664 131.953C123.746 131.943 123.825 131.916 123.896 131.875C123.938 131.853 123.975 131.821 124.003 131.781L120.512 126.535C120.467 126.468 120.45 126.386 120.465 126.307C120.48 126.228 120.526 126.158 120.592 126.113C120.659 126.068 120.741 126.051 120.82 126.066C120.899 126.081 120.969 126.127 121.015 126.193C122.611 128.497 124.405 130.658 126.375 132.652C126.593 132.892 126.891 133.044 127.212 133.081C127.239 133.08 127.265 133.073 127.287 133.058C127.31 133.044 127.328 133.024 127.34 133.001C127.413 132.887 127.34 132.672 127.186 132.378C126.379 130.997 125.414 129.716 124.311 128.558L122.817 127.138C122.769 127.08 122.743 127.007 122.745 126.932C122.746 126.857 122.776 126.785 122.827 126.73C122.878 126.675 122.947 126.64 123.022 126.633C123.096 126.625 123.171 126.645 123.232 126.689C123.762 127.145 124.264 127.62 124.747 128.123L129.866 132.981C130.065 133.207 130.338 133.354 130.636 133.396C130.663 133.397 130.69 133.392 130.715 133.38C130.739 133.368 130.761 133.351 130.777 133.329C130.931 133.168 130.777 132.806 130.556 132.512C128.312 129.363 125.658 126.528 122.663 124.083C122.608 124.031 122.574 123.96 122.568 123.885C122.562 123.809 122.584 123.734 122.629 123.674C122.675 123.613 122.741 123.572 122.815 123.557C122.889 123.542 122.966 123.555 123.031 123.594C124.263 124.451 125.619 125.115 127.052 125.563C127.521 125.711 127.769 125.651 127.815 125.563C127.862 125.476 127.815 125.181 127.487 124.833C126.557 123.879 125.541 123.013 124.452 122.247C122.311 120.641 119.979 119.306 117.51 118.273C113.577 116.632 109.644 116.21 105.45 115.761L104.143 115.613C104.103 115.609 104.065 115.597 104.03 115.578C103.995 115.559 103.964 115.533 103.939 115.502C103.914 115.471 103.896 115.435 103.885 115.397C103.874 115.358 103.871 115.318 103.875 115.278C103.879 115.239 103.891 115.2 103.91 115.165C103.93 115.13 103.956 115.099 103.987 115.074C104.018 115.049 104.054 115.031 104.092 115.02C104.13 115.009 104.171 115.006 104.21 115.01L105.55 115.151C109.765 115.607 113.738 116.036 117.752 117.711C120.267 118.753 122.644 120.103 124.827 121.731C125.947 122.528 126.992 123.425 127.949 124.411C128.432 124.934 128.579 125.503 128.338 125.885C128.197 126.099 127.822 126.421 126.877 126.126C126.332 125.96 125.797 125.76 125.276 125.53C127.418 127.534 129.355 129.748 131.058 132.136C131.521 132.806 131.581 133.349 131.239 133.724C131.166 133.805 131.077 133.87 130.978 133.915C130.879 133.96 130.772 133.984 130.663 133.986L130.656 134.073Z" fill="#231F20"/>
<path d="M155.91 133.034L165.686 106.869L125.758 107.66L116.807 137.497L155.91 133.034Z" fill="white"/>
<path d="M116.807 137.852C116.758 137.852 116.71 137.842 116.666 137.821C116.621 137.8 116.583 137.769 116.552 137.731C116.517 137.689 116.493 137.639 116.481 137.585C116.469 137.532 116.471 137.476 116.485 137.423L125.437 107.586C125.459 107.519 125.5 107.46 125.557 107.417C125.613 107.374 125.681 107.349 125.752 107.345L165.679 106.555C165.734 106.554 165.788 106.566 165.837 106.591C165.886 106.615 165.928 106.651 165.96 106.695C165.99 106.74 166.008 106.792 166.015 106.845C166.022 106.898 166.017 106.952 166.001 107.004L156.225 133.135C156.203 133.194 156.165 133.246 156.115 133.285C156.066 133.324 156.006 133.349 155.943 133.356L116.847 137.852H116.807ZM126.013 108.009L117.303 137.128L155.695 132.746L165.223 107.231L126.013 108.009Z" fill="#231F20"/>
<path d="M153.779 133.275C153.779 133.275 164.614 142.073 160.808 150.14C157.002 158.207 87.7743 167.427 87.7743 167.427L84.6586 156.881C84.6586 156.881 138.965 129.141 153.779 133.275Z" fill="#231F20"/>
<path d="M87.7743 167.762C87.7021 167.761 87.632 167.737 87.5743 167.694C87.5165 167.65 87.4739 167.59 87.4527 167.521L84.337 156.975C84.3132 156.9 84.3171 156.82 84.3479 156.749C84.3787 156.677 84.4343 156.619 84.5045 156.586C84.6385 156.512 98.2603 149.577 113.524 143.225C134.06 134.683 147.628 131.225 153.846 132.954C153.893 132.967 153.936 132.99 153.974 133.021C155.864 134.627 157.544 136.467 158.972 138.495C161.96 142.797 162.684 146.87 161.062 150.288C157.19 158.422 90.6487 167.38 87.8212 167.755L87.7743 167.762ZM85.054 157.042L88.0155 167.038C92.8531 166.368 156.861 157.537 160.459 149.986C163.997 142.535 154.429 134.247 153.598 133.57C139.514 129.811 89.1144 155.031 85.0942 157.055L85.054 157.042Z" fill="#231F20"/>
<path d="M81.074 129.235C81.074 129.235 134.831 150.971 148.158 156.707L140.412 168.673C140.412 168.673 90.776 167.702 76.5445 155.232C62.313 142.763 63.2578 122.006 81.074 129.235Z" fill="#231F20"/>
<path d="M140.412 169.022C140.291 169.022 127.822 168.76 113.778 166.978C94.8833 164.573 82.2867 160.713 76.3301 155.494C68.8794 148.968 63.6598 137.51 67.7604 130.857C69.1005 128.646 72.6784 125.463 81.2147 128.92C81.7507 129.141 135.125 150.73 148.305 156.392C148.35 156.41 148.39 156.438 148.423 156.474C148.455 156.51 148.479 156.553 148.493 156.599C148.506 156.646 148.509 156.696 148.503 156.744C148.496 156.793 148.479 156.839 148.452 156.881L140.707 168.868C140.675 168.917 140.632 168.957 140.58 168.984C140.528 169.011 140.47 169.024 140.412 169.022ZM74.4741 128.069C71.7203 128.069 69.6097 129.128 68.3232 131.205C65.1607 136.344 67.7939 147.132 76.7656 154.991C90.307 166.857 136.888 168.265 140.231 168.345L147.668 156.854C133.906 150.958 81.4894 129.758 80.9533 129.543C78.9069 128.645 76.7079 128.144 74.4741 128.069Z" fill="#231F20"/>
<path d="M156.118 122.588C156.175 122.898 156.309 123.188 156.506 123.433L157.551 124.994C157.513 124.833 157.44 124.682 157.337 124.552C157.234 124.422 157.104 124.316 156.956 124.242C156.808 124.168 156.645 124.127 156.479 124.123C156.314 124.118 156.149 124.15 155.997 124.217C155.7 124.377 155.454 124.617 155.284 124.909C155.115 125.201 155.03 125.534 155.039 125.872C155.069 126.546 155.228 127.208 155.508 127.821C156.252 129.751 157.933 132.572 160.366 131.111C162.014 130.12 162.47 126.622 162.704 124.88C163.166 121.449 162.114 117.041 157.706 117.711C157.833 119.4 158.463 121.013 159.515 122.341C158.798 121.644 155.896 120.565 156.118 122.588Z" fill="white"/>
<path d="M159.019 131.822C158.75 131.823 158.482 131.778 158.228 131.688C156.64 131.145 155.649 129.101 155.2 127.929C154.907 127.278 154.741 126.578 154.711 125.865C154.7 125.469 154.801 125.078 155.004 124.737C155.207 124.397 155.503 124.121 155.856 123.942C156.02 123.867 156.199 123.828 156.379 123.828L156.232 123.607C156.003 123.319 155.851 122.978 155.789 122.615C155.736 122.349 155.773 122.073 155.894 121.83C156.016 121.587 156.214 121.392 156.459 121.275C157.146 121.063 157.888 121.118 158.536 121.429C157.893 120.304 157.508 119.05 157.411 117.758C157.406 117.68 157.431 117.604 157.479 117.543C157.527 117.483 157.596 117.442 157.672 117.429C158.343 117.282 159.039 117.301 159.701 117.483C160.362 117.665 160.97 118.005 161.471 118.474C163.046 120.029 163.307 122.83 163.019 124.94C162.758 126.87 162.289 130.334 160.533 131.393C160.079 131.676 159.554 131.824 159.019 131.822ZM156.419 124.451C156.311 124.45 156.204 124.47 156.104 124.511C155.86 124.648 155.659 124.849 155.522 125.092C155.385 125.336 155.317 125.612 155.327 125.892C155.353 126.527 155.504 127.15 155.769 127.728C156.104 128.585 157.029 130.642 158.449 131.125C158.742 131.218 159.053 131.244 159.357 131.198C159.662 131.153 159.952 131.038 160.205 130.863C161.712 129.959 162.168 126.555 162.389 124.92C162.664 122.91 162.443 120.297 161.049 118.89C160.654 118.518 160.178 118.241 159.658 118.082C159.139 117.923 158.59 117.885 158.054 117.972C158.226 119.497 158.823 120.943 159.776 122.146C159.825 122.206 159.849 122.283 159.843 122.361C159.836 122.438 159.8 122.51 159.742 122.562C159.685 122.615 159.61 122.645 159.531 122.645C159.453 122.645 159.378 122.615 159.32 122.562C158.871 122.119 157.391 121.49 156.727 121.811C156.58 121.878 156.392 122.032 156.439 122.555C156.498 122.813 156.612 123.056 156.774 123.265L157.337 124.096C157.485 124.192 157.609 124.319 157.702 124.468C157.795 124.618 157.853 124.786 157.873 124.96C157.88 125.029 157.864 125.097 157.828 125.156C157.792 125.214 157.737 125.258 157.672 125.282C157.608 125.305 157.538 125.306 157.473 125.284C157.409 125.262 157.354 125.219 157.317 125.161L156.902 124.545C156.752 124.472 156.585 124.44 156.419 124.451Z" fill="#231F20"/>
<path d="M141.022 154.227C140.98 154.234 140.937 154.234 140.894 154.227C139.722 153.772 112.009 143.045 105.765 139.219C105.687 139.17 105.631 139.093 105.61 139.004C105.589 138.915 105.603 138.821 105.651 138.743C105.674 138.704 105.705 138.67 105.742 138.643C105.779 138.616 105.82 138.596 105.865 138.586C105.909 138.575 105.955 138.573 106 138.581C106.045 138.588 106.088 138.605 106.126 138.629C112.318 142.421 140.854 153.47 141.142 153.577C141.228 153.61 141.298 153.676 141.336 153.76C141.373 153.845 141.376 153.94 141.343 154.026C141.316 154.088 141.27 154.14 141.213 154.176C141.156 154.211 141.089 154.229 141.022 154.227Z" fill="white"/>
<path d="M108.699 110.474C114.809 110.474 119.762 105.786 119.762 100.002C119.762 94.2178 114.809 89.529 108.699 89.529C102.59 89.529 97.6372 94.2178 97.6372 100.002C97.6372 105.786 102.59 110.474 108.699 110.474Z" fill="#231F20"/>
<path d="M108.699 110.803C102.414 110.803 97.3088 105.958 97.3088 100.002C97.3088 94.0451 102.421 89.194 108.699 89.194C114.978 89.194 120.09 94.0451 120.09 100.002C120.09 105.958 114.984 110.803 108.699 110.803ZM108.699 89.8641C102.783 89.8641 97.9789 94.4136 97.9789 100.002C97.9789 105.59 102.79 110.133 108.699 110.133C114.609 110.133 119.42 105.59 119.42 100.002C119.42 94.4136 114.616 89.8641 108.699 89.8641Z" fill="#231F20"/>
<path d="M102.863 103.405L100.183 101.838V99.7671L102.863 98.1993C103.757 97.6856 104.65 97.1629 105.544 96.6314V99.1373C105.068 99.4321 104.592 99.7202 104.116 99.9949C103.641 100.27 103.172 100.551 102.689 100.853L104.116 101.643L105.544 102.441V104.973L102.863 103.405Z" fill="white"/>
<path d="M106.301 105.637L109.457 93.6296L111.105 94.3734L107.936 106.36L106.301 105.637Z" fill="white"/>
<path d="M114.576 98.1993L117.256 99.7671V101.838L114.576 103.405L111.895 104.973V102.441L113.323 101.643L114.75 100.853C114.274 100.551 113.798 100.263 113.323 99.9949C112.847 99.7269 112.378 99.4321 111.895 99.1373V96.6314L114.576 98.1993Z" fill="white"/>
<path d="M85.7642 129.141C85.6753 129.147 85.588 129.117 85.5214 129.057C85.4548 128.998 85.4144 128.915 85.4091 128.826C85.4037 128.738 85.4339 128.65 85.493 128.584C85.552 128.517 85.6351 128.477 85.724 128.471L101.805 126.522L104.358 113.65L83.7541 111.908C83.7048 111.905 83.657 111.89 83.6141 111.866C83.5711 111.842 83.5343 111.808 83.5062 111.767C83.4761 111.728 83.4556 111.682 83.4463 111.633C83.437 111.584 83.4392 111.534 83.4526 111.486L91.9218 79.9543C91.9449 79.8654 92.0023 79.7894 92.0815 79.7429C92.1607 79.6964 92.2551 79.6833 92.3439 79.7064C92.4328 79.7295 92.5088 79.7869 92.5553 79.8661C92.6018 79.9452 92.6149 80.0396 92.5918 80.1285L84.2231 111.278L104.773 112.98C104.82 112.985 104.866 113 104.907 113.023C104.949 113.046 104.985 113.077 105.014 113.114C105.042 113.152 105.062 113.196 105.072 113.242C105.083 113.288 105.084 113.336 105.075 113.382L102.394 126.857C102.38 126.925 102.344 126.988 102.293 127.036C102.241 127.084 102.176 127.115 102.106 127.125L85.7642 129.101V129.141Z" fill="#231F20"/>
<path d="M174.316 38.1509H140.908V41.6083H174.316V38.1509Z" fill="#E6E7E8"/>
<path d="M211.61 38.1509H178.202V41.6083H211.61V38.1509Z" fill="#E6E7E8"/>
<path d="M174.316 44.074H154.704V47.5314H174.316V44.074Z" fill="#68E1FD"/>
<path d="M207.878 44.074H178.202V47.5314H207.878V44.074Z" fill="#E6E7E8"/>
<path d="M174.316 50.0038H149.598V53.4612H174.316V50.0038Z" fill="#E6E7E8"/>
<path d="M192.139 50.0038H178.202V53.4612H192.139V50.0038Z" fill="#E6E7E8"/>
<path d="M174.322 55.9269H159.903V59.3843H174.322V55.9269Z" fill="#E6E7E8"/>
<path d="M205.499 55.9269H178.202V59.3843H205.499V55.9269Z" fill="#68E1FD"/>
<path d="M174.316 61.8567H169.726V65.3141H174.316V61.8567Z" fill="#68E1FD"/>
<path d="M196.541 61.8567H178.202V65.3141H196.541V61.8567Z" fill="#E6E7E8"/>
<path d="M173.739 86.2191H143.039V90.179H173.739V86.2191Z" fill="#68E1FD"/>
<path d="M197.526 86.2191H178.671V90.179H197.526V86.2191Z" fill="#E6E7E8"/>
<path d="M173.733 92.9998H148.808V96.9597H173.733V92.9998Z" fill="#E6E7E8"/>
<path d="M206.122 92.9998H178.671V96.9597H206.122V92.9998Z" fill="#E6E7E8"/>
<path d="M173.733 99.7873H161.27V103.747H173.733V99.7873Z" fill="#E6E7E8"/>
<path d="M211.315 99.7873H178.671V103.747H211.315V99.7873Z" fill="#E6E7E8"/>
<path d="M173.733 106.575H169.063V110.535H173.733V106.575Z" fill="#E6E7E8"/>
<path d="M213.365 106.575H178.671V110.535H213.365V106.575Z" fill="#68E1FD"/>
<path d="M201.975 113.355H178.671V117.315H201.975V113.355Z" fill="#E6E7E8"/>
<path d="M190.484 77.6293L187.964 76.6242V75.2841L190.484 74.2791L193.003 73.274V74.8687C192.547 75.063 192.098 75.2439 191.663 75.4182C191.227 75.5924 190.765 75.7733 190.323 75.9676L191.663 76.4768L193.003 76.986V78.6075L190.484 77.6293Z" fill="#E6E7E8"/>
<path d="M193.747 79.0564L196.735 71.3712L198.303 71.8402L195.294 79.559L193.747 79.0564Z" fill="#E6E7E8"/>
<path d="M201.559 74.2992C202.397 74.6342 203.241 74.9692 204.079 75.3043V76.6443L201.559 77.6494L199.04 78.6544V77.0128L200.38 76.5036L201.72 75.9944C201.264 75.8001 200.816 75.6192 200.38 75.445C199.944 75.2708 199.482 75.0898 199.04 74.8955V73.2942L201.559 74.2992Z" fill="#E6E7E8"/>
<path d="M141.786 29.9095C141.785 29.7542 141.819 29.6007 141.886 29.4606C141.945 29.3179 142.034 29.1898 142.147 29.0854C142.259 28.9823 142.388 28.9005 142.529 28.8442C142.68 28.7822 142.842 28.7504 143.005 28.7504C143.159 28.7518 143.312 28.7837 143.454 28.8442C143.592 28.9021 143.719 28.9838 143.829 29.0854C143.936 29.1938 144.023 29.321 144.084 29.4606C144.146 29.6022 144.178 29.755 144.178 29.9095C144.178 30.0662 144.146 30.2212 144.084 30.3652C144.021 30.4978 143.935 30.6181 143.829 30.7203C143.605 30.9295 143.312 31.0488 143.005 31.0553C142.842 31.0553 142.68 31.0234 142.529 30.9615C142.387 30.9077 142.257 30.8257 142.147 30.7203C142.036 30.622 141.947 30.5009 141.886 30.3652C141.819 30.2227 141.785 30.067 141.786 29.9095ZM141.786 33.8359C141.789 33.6825 141.822 33.5313 141.885 33.3909C141.947 33.2506 142.036 33.124 142.147 33.0185C142.257 32.911 142.387 32.8267 142.529 32.7706C142.681 32.7109 142.842 32.6813 143.005 32.6835C143.159 32.6826 143.312 32.7122 143.454 32.7706C143.594 32.8284 143.721 32.9125 143.829 33.0185C143.936 33.1244 144.023 33.2493 144.084 33.387C144.146 33.5298 144.177 33.6837 144.177 33.8393C144.177 33.9949 144.146 34.1488 144.084 34.2916C144.023 34.4272 143.936 34.55 143.829 34.6534C143.719 34.755 143.592 34.8366 143.454 34.8946C143.312 34.953 143.159 34.9826 143.005 34.9817C142.842 34.9838 142.681 34.9542 142.529 34.8946C142.388 34.8382 142.259 34.7565 142.147 34.6534C142.034 34.5539 141.945 34.4302 141.886 34.2916C141.818 34.1493 141.784 33.9935 141.786 33.8359Z" fill="#E6E7E8"/>
<path d="M180.909 142.649C181.174 142.663 181.436 142.587 181.653 142.435C181.84 142.294 181.927 141.999 181.927 141.544V139.467C181.927 139.123 181.972 138.78 182.061 138.448C182.145 138.139 182.286 137.848 182.477 137.59C182.672 137.343 182.919 137.142 183.2 137.001C183.536 136.845 183.903 136.769 184.272 136.78H185.78V138.937H185.251C185.13 138.925 185.008 138.946 184.898 138.998C184.788 139.05 184.695 139.131 184.627 139.232C184.512 139.436 184.454 139.668 184.46 139.902V142.019C184.468 142.288 184.42 142.554 184.319 142.803C184.239 142.996 184.125 143.172 183.984 143.326C183.861 143.458 183.713 143.565 183.549 143.641C183.418 143.71 183.274 143.753 183.127 143.768C183.272 143.795 183.414 143.84 183.549 143.902C183.713 143.973 183.861 144.075 183.984 144.204C184.307 144.561 184.477 145.029 184.46 145.51V147.634C184.452 147.869 184.51 148.101 184.627 148.304C184.694 148.407 184.787 148.489 184.897 148.542C185.007 148.595 185.129 148.617 185.251 148.606H185.78V150.763H184.272C183.903 150.774 183.536 150.699 183.2 150.542C182.919 150.401 182.672 150.2 182.477 149.953C182.287 149.695 182.146 149.404 182.061 149.095C181.972 148.761 181.927 148.416 181.927 148.07V145.993C181.95 145.834 181.938 145.672 181.89 145.519C181.843 145.366 181.762 145.226 181.653 145.108C181.436 144.956 181.174 144.88 180.909 144.894V142.649Z" fill="#E6E7E8"/>
<path d="M204.052 144.88C203.785 144.867 203.521 144.942 203.301 145.095C203.194 145.213 203.113 145.354 203.066 145.507C203.018 145.659 203.005 145.821 203.027 145.979V148.056C203.027 148.402 202.982 148.747 202.893 149.082C202.811 149.391 202.67 149.683 202.477 149.939C202.286 150.19 202.038 150.392 201.754 150.529C201.418 150.685 201.051 150.761 200.681 150.75H199.174V148.572H199.71C199.83 148.582 199.951 148.56 200.06 148.506C200.168 148.453 200.26 148.372 200.326 148.271C200.444 148.068 200.502 147.835 200.494 147.601V145.477C200.487 145.211 200.535 144.946 200.635 144.7C200.717 144.504 200.832 144.325 200.976 144.17C201.098 144.042 201.244 143.94 201.405 143.869C201.542 143.807 201.686 143.763 201.834 143.735C201.684 143.719 201.539 143.676 201.405 143.607C201.243 143.532 201.097 143.425 200.976 143.292C200.831 143.141 200.715 142.964 200.635 142.77C200.534 142.521 200.486 142.254 200.494 141.986V139.862C200.5 139.627 200.442 139.396 200.326 139.192C200.26 139.092 200.167 139.012 200.059 138.96C199.95 138.908 199.83 138.886 199.71 138.897H199.174V136.78H200.681C201.051 136.769 201.418 136.845 201.754 137.001C202.038 137.138 202.286 137.34 202.477 137.59C202.671 137.846 202.812 138.138 202.893 138.448C202.982 138.78 203.027 139.123 203.027 139.467V141.544C203.004 141.703 203.017 141.866 203.065 142.02C203.112 142.174 203.193 142.316 203.301 142.435C203.521 142.587 203.785 142.663 204.052 142.649V144.88Z" fill="#E6E7E8"/>
</svg>
