<svg width="30" height="33" viewBox="0 0 30 33" fill="none" xmlns="http://www.w3.org/2000/svg">
<path d="M20.3125 19.7122C20.9375 19.3372 21.8125 18.9622 21.8125 18.9622C21.8125 18.9622 19.375 19.3997 16.9375 19.5872C14 19.8372 10.875 19.8997 9.25 19.6497C5.5 19.1497 11.3125 17.7747 11.3125 17.7747C11.3125 17.7747 9.0625 17.6497 6.3125 18.9622C3 20.5872 14.4375 21.2747 20.3125 19.7122ZM15 17.7122C13.8125 15.0872 9.8125 12.7122 15 8.58716C21.5 3.52466 18.125 0.149658 18.125 0.149658C19.5 5.46216 13.4375 7.08716 11.25 10.3372C9.75 12.5872 11.9375 14.9622 15 17.7122ZM22.125 6.71216C22.1875 6.71216 11.1875 9.46216 16.4375 15.4622C18 17.2747 16 18.8372 16 18.8372C16 18.8372 19.9375 16.8372 18.125 14.2747C16.4375 11.9622 15.1875 10.7747 22.125 6.71216ZM21.75 23.6497C21.75 23.7122 21.6875 23.7122 21.625 23.7747C29.6875 21.6497 26.6875 16.3372 22.875 17.7122C22.6875 17.7747 22.5 17.8997 22.375 18.0872C22.5625 18.0247 22.8125 17.9622 23.0625 17.8997C25 17.5247 27.75 20.5247 21.75 23.6497ZM24.75 27.5247C24.75 27.5247 25.625 28.2747 23.75 28.8372C20.125 29.9622 8.6875 30.2747 5.5 28.8997C4.375 28.3997 6.5 27.7122 7.1875 27.5247C7.875 27.3997 8.3125 27.3997 8.3125 27.3997C7 26.5247 0.0625 29.2122 4.75 29.9622C17.5 32.0247 28.0625 29.0247 24.75 27.5247ZM10.75 24.8997C5.8125 26.2747 13.75 29.1497 20 26.4622C19.375 26.2122 18.8125 25.9622 18.25 25.5872C15.4375 26.1497 14.125 26.1497 11.625 25.8997C9.5 25.6497 10.75 24.8997 10.75 24.8997ZM22 31.0247C17.0625 31.8997 11 31.8372 7.375 31.2122C7.375 31.2122 8.125 31.8372 11.9375 32.0872C17.6875 32.4622 26.5625 31.8997 26.75 29.1497C26.75 29.1497 26.375 30.1497 22 31.0247ZM19.25 22.2122C15.5625 22.9622 13.4375 22.9622 10.6875 22.6497C8.625 22.4622 10 21.3997 10 21.3997C4.5625 23.2122 13 25.2747 20.5625 23.0247C20.0625 22.8997 19.625 22.5872 19.25 22.2122Z" fill="#0074BD"/>
</svg>
