<svg width="28" height="29" viewBox="0 0 28 29" fill="none" xmlns="http://www.w3.org/2000/svg">
<path d="M0 0.232666V28.2327H28V0.232666H0ZM15.1875 22.1077C15.1875 24.7952 13.625 26.0452 11.25 26.0452C9.1875 26.0452 7.9375 24.9827 7.3125 23.6702L9.5 22.3577C9.875 23.1077 10.25 23.7327 11.1875 23.7327C12 23.7327 12.5625 23.3577 12.5625 22.0452V13.1077H15.1875V22.1077ZM21.4375 26.0452C19 26.0452 17.4375 24.9202 16.625 23.3577L18.8125 22.1702C19.375 23.0452 20.0625 23.7327 21.375 23.7327C22.4375 23.7327 23.1875 23.1702 23.1875 22.4202C23.1875 21.5452 22.4375 21.2327 21.25 20.6702L20.5625 20.4202C18.6875 19.6077 17.4375 18.6077 17.4375 16.4202C17.4375 14.4827 18.9375 12.9827 21.3125 12.9827C22.9375 12.9827 24.1875 13.5452 25 15.0452L23 16.3577C22.5 15.6077 22.0625 15.2327 21.25 15.2327C20.5 15.2327 20 15.7327 20 16.3577C20 17.1702 20.5 17.4827 21.625 17.9827L22.3125 18.2952C24.5625 19.2327 25.8125 20.2327 25.8125 22.4202C25.8125 24.7952 23.9375 26.0452 21.4375 26.0452Z" fill="#FFDF00"/>
</svg>
