<svg width="22" height="15" viewBox="0 0 22 15" fill="none" xmlns="http://www.w3.org/2000/svg">
<path d="M21.2266 9.24805C21.5977 8.6543 21.1523 7.875 20.4473 7.875H5.64062C4.75 7.875 3.9707 8.35742 3.5625 9.0625L0.890625 13.6641C0.519531 14.2578 0.964844 15 1.66992 15H16.4766C17.3672 15 18.1465 14.5547 18.5547 13.8496L21.2266 9.24805ZM5.64062 6.6875H17.8125V4.90625C17.8125 3.94141 16.9961 3.125 16.0312 3.125H10.0938L7.71875 0.75H1.78125C0.779297 0.75 0 1.56641 0 2.53125V12.8848L2.56055 8.46875C3.19141 7.39258 4.3418 6.6875 5.64062 6.6875Z" fill="#F3F3F3"/>
</svg>
