<svg width="25" height="20" viewBox="0 0 25 20" fill="none" xmlns="http://www.w3.org/2000/svg">
<path d="M11.3164 19.375C11.5762 19.4492 11.7988 19.3008 11.873 19.0781L16.957 1.63672C17.0312 1.37695 16.8828 1.11719 16.6602 1.08008L14.3965 0.412109C14.1367 0.337891 13.9141 0.486328 13.8398 0.708984L8.75586 18.1504C8.68164 18.4102 8.83008 18.6328 9.05273 18.707L11.3164 19.375ZM7.08594 15.2188L8.71875 13.4746C8.9043 13.2891 8.86719 13.0293 8.68164 12.8438L5.3418 9.875L8.68164 6.94336C8.86719 6.75781 8.9043 6.46094 8.71875 6.3125L7.08594 4.56836C6.9375 4.38281 6.64062 4.38281 6.45508 4.56836L1.11133 9.57812C0.925781 9.72656 0.925781 10.0234 1.11133 10.209L6.45508 15.2188C6.64062 15.4043 6.9375 15.4043 7.08594 15.2188ZM19.2578 15.2188L24.6016 10.209C24.7871 10.0605 24.7871 9.72656 24.6016 9.57812L19.2578 4.56836C19.0723 4.38281 18.7754 4.38281 18.627 4.56836L16.9941 6.27539C16.8457 6.46094 16.8457 6.75781 17.0312 6.94336L20.4082 9.875L17.0312 12.8438C16.8457 13.0293 16.8086 13.2891 16.9941 13.4746L18.627 15.2188C18.7754 15.4043 19.0723 15.4043 19.2578 15.2188Z" fill="#F3F3F3"/>
</svg>
